<?xml version="1.0" encoding="utf-8"?>
<!DOCTYPE svg PUBLIC "-//W3C//DTD SVG 1.1//EN" "http://www.w3.org/Graphics/SVG/1.1/DTD/svg11.dtd">
<svg version="1.1" xmlns="http://www.w3.org/2000/svg" xmlns:xlink="http://www.w3.org/1999/xlink" x="0px" y="0px"
	 width="274.07px" height="145px" viewBox="0 0 274.07 145" enable-background="new 0 0 274.07 145" xml:space="preserve">
<g>
	<path fill-rule="evenodd" clip-rule="evenodd" fill="#03A9F4" d="M205.939,35.003c-20.819,0-41.64-0.111-62.457,0.1
		c-3.854,0.039-4.713-1.085-4.596-4.731c0.273-8.485,0.113-16.986,0.078-25.48c-0.023-5.247-1.104-5.947-5.791-3.504
		C103.816,16.692,74.48,32.038,45.148,47.39c-14.162,7.412-28.297,14.877-42.46,22.288c-1.33,0.696-2.837,1.113-2.677,3.064
		c0.137,1.644,1.496,1.962,2.661,2.571c15.611,8.168,31.199,16.381,46.813,24.543c22.982,12.014,45.982,23.992,68.969,35.998
		c5.057,2.643,10.045,5.42,15.135,8c4.117,2.088,5.332,1.346,5.365-3.221c0.064-8.494,0.369-17.008-0.117-25.475
		c-0.275-4.803,1.593-5.252,5.622-5.238c40.972,0.135,81.944,0.082,122.917,0.082c6.592-0.002,6.596-0.006,6.596-6.51
		c0.002-20.986-0.117-41.973,0.098-62.957c0.045-4.433-1.307-5.668-5.674-5.625C247.58,35.117,226.759,35.003,205.939,35.003z"/>
</g>
</svg>
