<svg xmlns="http://www.w3.org/2000/svg" viewBox="0 0 125 125" width="125" height="125" preserveAspectRatio="xMidYMid meet" style="width: 100%; height: 100%; transform: translate3d(0px, 0px, 0px);"><defs><clipPath id="__lottie_element_2"><rect width="125" height="125" x="0" y="0"></rect></clipPath><clipPath id="__lottie_element_7"><path fill="#ffffff" clip-rule="nonzero" d=" M10.145999908447266,8.932999610900879 C10.145999908447266,8.932999610900879 10.145999908447266,117.37200164794922 10.145999908447266,117.37200164794922 C10.145999908447266,117.37200164794922 112.697998046875,117.37200164794922 112.697998046875,117.37200164794922 C112.697998046875,117.37200164794922 112.697998046875,8.932999610900879 112.697998046875,8.932999610900879 C112.697998046875,8.932999610900879 10.145999908447266,8.932999610900879 10.145999908447266,8.932999610900879" fill-opacity="1"></path></clipPath><clipPath id="__lottie_element_10"><path fill="#ffffff" clip-rule="nonzero" d=" M10.145999908447266,8.932999610900879 C10.145999908447266,8.932999610900879 10.145999908447266,117.37200164794922 10.145999908447266,117.37200164794922 C10.145999908447266,117.37200164794922 112.697998046875,117.37200164794922 112.697998046875,117.37200164794922 C112.697998046875,117.37200164794922 112.697998046875,8.932999610900879 112.697998046875,8.932999610900879 C112.697998046875,8.932999610900879 10.145999908447266,8.932999610900879 10.145999908447266,8.932999610900879" fill-opacity="1"></path></clipPath></defs><g clip-path="url(#__lottie_element_2)"><g transform="matrix(1,0,0,1,0,0)" opacity="1" style="display: block;"><g opacity="1" transform="matrix(1,0,0,1,62.5,62.500999450683594)"><path fill="rgb(1,87,155)" fill-opacity="1" d=" M62.5,59.09000015258789 C62.5,60.9739990234375 60.974998474121094,62.499000549316406 59.090999603271484,62.499000549316406 C59.090999603271484,62.499000549316406 -59.090999603271484,62.499000549316406 -59.090999603271484,62.499000549316406 C-60.9739990234375,62.499000549316406 -62.5,60.9739990234375 -62.5,59.09000015258789 C-62.5,59.09000015258789 -62.5,-59.09000015258789 -62.5,-59.09000015258789 C-62.5,-60.972999572753906 -60.9739990234375,-62.499000549316406 -59.090999603271484,-62.499000549316406 C-59.090999603271484,-62.499000549316406 59.090999603271484,-62.499000549316406 59.090999603271484,-62.499000549316406 C60.974998474121094,-62.499000549316406 62.5,-60.972999572753906 62.5,-59.09000015258789 C62.5,-59.09000015258789 62.5,59.09000015258789 62.5,59.09000015258789z"></path></g><g opacity="1" transform="matrix(1,0,0,1,62.5,62.5)"><path fill="rgb(225,242,252)" fill-opacity="1" d=" M-50,-49.99700164794922 C-50,-49.99700164794922 -50,0.003000000026077032 -50,0.003000000026077032 C-50,0.003000000026077032 0,49.99700164794922 0,49.99700164794922 C0,49.99700164794922 50,0.003000000026077032 50,0.003000000026077032 C50,0.003000000026077032 50,-49.99700164794922 50,-49.99700164794922 C50,-49.99700164794922 0,0.003000000026077032 0,0.003000000026077032 C0,0.003000000026077032 -50,-49.99700164794922 -50,-49.99700164794922z"></path></g></g><g clip-path="url(#__lottie_element_10)" transform="matrix(1,0,0,1,0,0)" opacity="1" style="display: block;"><g opacity="1" transform="matrix(1,0,0,1,62.5,74.9990005493164)"><path fill="rgb(65,178,230)" fill-opacity="1" d=" M-50,-12.496999740600586 C-50,-12.496999740600586 -30.4060001373291,-17.902999877929688 -30.4060001373291,-17.902999877929688 C-30.4060001373291,-17.902999877929688 -24.999000549316406,-37.49800109863281 -24.999000549316406,-37.49800109863281 C-24.999000549316406,-37.49800109863281 0,-12.498000144958496 0,-12.498000144958496 C0,-12.498000144958496 25,-37.49700164794922 25,-37.49700164794922 C25,-37.49700164794922 44.59400177001953,-32.090999603271484 44.59400177001953,-32.090999603271484 C44.59400177001953,-32.090999603271484 50,-12.496999740600586 50,-12.496999740600586 C50,-12.496999740600586 0,37.49800109863281 0,37.49800109863281 C0,37.49800109863281 -50,-12.496999740600586 -50,-12.496999740600586z"></path></g></g><g clip-path="url(#__lottie_element_7)" transform="matrix(1,0,0,1,0,0)" opacity="1" style="display: block;"><g opacity="1" transform="matrix(1,0,0,1,62.5,102.947998046875)"><path fill="rgb(225,242,252)" fill-opacity="1" d=" M0,9.548999786376953 C0,9.548999786376953 19.104000091552734,-9.548999786376953 19.104000091552734,-9.548999786376953 C19.104000091552734,-9.548999786376953 -19.104000091552734,-9.548999786376953 -19.104000091552734,-9.548999786376953 C-19.104000091552734,-9.548999786376953 0,9.548999786376953 0,9.548999786376953z"></path></g></g><g transform="matrix(1,0,0,1,62.5,62.5)" opacity="1" style="display: block;"></g></g></svg>