<?xml version="1.0" encoding="utf-8"?>
<!DOCTYPE svg PUBLIC "-//W3C//DTD SVG 1.1//EN" "http://www.w3.org/Graphics/SVG/1.1/DTD/svg11.dtd">
<svg version="1.1" xmlns="http://www.w3.org/2000/svg" xmlns:xlink="http://www.w3.org/1999/xlink" x="0px" y="0px"
	 width="748.884px" height="488.855px" viewBox="0 0 748.884 488.855" enable-background="new 0 0 748.884 488.855"
	 xml:space="preserve">
<g>
	<g>
		<path fill="#FFFFFF" d="M0.5,176.354c100.165,0,200.12,0,300,0c0-58.782,0-117.316,0-175.854c-100.107,0-199.987,0-300,0
			C0.5,59.153,0.5,117.612,0.5,176.354z"/>
		<path fill="#69F0AE" stroke="#000000" stroke-miterlimit="10" d="M0.5,176.354c0-58.742,0-117.201,0-175.854
			c100.013,0,199.893,0,300,0c0,58.538,0,117.072,0,175.854C200.62,176.354,100.665,176.354,0.5,176.354z M285.112,43.198
			c-6.29-0.419-11.785-2.413-15.916-7.12c-4.107-4.681-6.121-10.141-5.131-16.404c-73.658,0-147.172,0-220.798,0
			c-0.671,6.133-3.462,10.932-8.053,14.768c-4.511,3.769-9.872,5.455-15.432,6.177c0,32.85,0,65.321,0,97.833
			c0.731,0.101,1.238,0.178,1.747,0.241c10.816,1.306,18.403,7.736,21.154,18.183c0.5,1.895,1.605,1.8,2.983,1.8
			c72.207-0.006,144.413-0.015,216.62,0.032c2.08,0.002,2.76-0.614,3.134-2.7c1.263-7.026,4.813-12.616,11.51-15.621
			c2.497-1.121,5.308-1.541,8.182-2.336C285.112,106.673,285.112,75.128,285.112,43.198z"/>
		<path fill="#69F0AE" stroke="#000000" stroke-miterlimit="10" d="M206.837,86.139c0.077,31.156-25.452,56.773-56.599,56.797
			c-31.205,0.022-56.927-25.506-56.944-56.519c-0.018-31.756,25.377-57.026,57.288-57.008
			C181.544,29.427,206.76,54.855,206.837,86.139z M147.888,109.734c-5.801-1.327-8.123-5.379-9.674-10.253
			c-1.237-3.889-3.713-5.338-7.237-4.541c-3.101,0.705-4.779,3.414-4.232,7.248c0.924,6.479,4.735,11.03,10.355,13.909
			c3.34,1.708,7.074,2.648,10.875,4.021c0,1.359-0.004,3.011,0.001,4.66c0.006,1.795-0.136,3.771,2.404,3.911
			c2.553,0.139,3.04-1.865,3.257-3.744c0.208-1.805,0.045-3.654,0.045-5.288c2.844-0.802,5.307-1.287,7.612-2.182
			c7.941-3.087,12.616-10.503,12.391-19.367c-0.199-7.817-4.976-13.977-13.04-16.756c-2.236-0.77-4.502-1.458-6.68-2.161
			c0-6.122,0-12.054,0-18.172c3.648,1.404,5.432,4.001,6.534,7.311c1.313,3.946,3.941,5.383,7.339,4.234
			c3.007-1.018,4.481-4.074,3.393-7.653c-1.694-5.572-5.204-9.639-10.721-11.712c-2.104-0.791-4.349-1.206-6.786-1.863
			c0-1.621,0.05-3.266-0.013-4.905c-0.072-1.871-0.877-3.575-2.922-3.085c-1.104,0.263-2.322,1.817-2.671,3.024
			c-0.458,1.588-0.113,3.408-0.113,5.161c-1.279,0.176-2.089,0.295-2.902,0.4c-8.665,1.107-15.299,7.144-16.481,14.995
			c-1.395,9.268,2.142,15.65,11.047,19.635c2.631,1.178,5.414,2.016,8.217,3.043C147.888,96.225,147.888,102.853,147.888,109.734z"
			/>
		<path fill="#FFFFFF" stroke="#000000" stroke-miterlimit="10" d="M147.888,109.734c0-6.881,0-13.509,0-20.128
			c-2.804-1.026-5.586-1.865-8.217-3.043c-8.906-3.985-12.442-10.367-11.047-19.635c1.182-7.852,7.816-13.888,16.481-14.995
			c0.813-0.105,1.623-0.223,2.902-0.4c0-1.753-0.346-3.573,0.113-5.161c0.35-1.207,1.568-2.761,2.671-3.024
			c2.045-0.49,2.851,1.215,2.924,3.085c0.063,1.639,0.012,3.284,0.012,4.905c2.438,0.657,4.683,1.072,6.785,1.863
			c5.519,2.073,9.029,6.141,10.722,11.712c1.088,3.58-0.386,6.635-3.394,7.653c-3.398,1.149-6.024-0.288-7.34-4.234
			c-1.102-3.31-2.886-5.907-6.533-7.311c0,6.118,0,12.051,0,18.173c2.178,0.703,4.443,1.389,6.68,2.161
			c8.062,2.779,12.84,8.937,13.039,16.756c0.226,8.864-4.449,16.28-12.391,19.367c-2.304,0.896-4.767,1.38-7.612,2.182
			c0,1.633,0.164,3.483-0.043,5.288c-0.216,1.878-0.704,3.883-3.257,3.744c-2.542-0.14-2.398-2.116-2.404-3.911
			c-0.005-1.649-0.001-3.301-0.001-4.66c-3.799-1.373-7.533-2.313-10.874-4.021c-5.621-2.877-9.433-7.43-10.356-13.909
			c-0.548-3.834,1.131-6.543,4.232-7.248c3.523-0.797,6,0.652,7.237,4.541C139.766,104.355,142.087,108.407,147.888,109.734z
			 M153.909,91.039c0,5.833,0,11.463,0,17.132c4.942-1.131,7.657-3.946,7.893-8.038C162.072,95.395,160.19,93.166,153.909,91.039z
			 M147.987,77.827c0-2.725,0-5.21,0-7.696c0-2.437,0-4.872,0-7.387c-5.346,1.318-7.479,3.462-7.549,7.295
			C140.365,74.001,142.346,76.132,147.987,77.827z"/>
		<path fill="#69F0AE" stroke="#000000" stroke-miterlimit="10" d="M153.909,91.039c6.281,2.126,8.165,4.355,7.893,9.094
			c-0.236,4.092-2.95,6.905-7.893,8.038C153.909,102.502,153.909,96.871,153.909,91.039z"/>
		<path fill="#69F0AE" stroke="#000000" stroke-miterlimit="10" d="M147.987,77.827c-5.641-1.694-7.622-3.826-7.549-7.789
			c0.07-3.832,2.203-5.977,7.549-7.294c0,2.515,0,4.95,0,7.386C147.987,72.615,147.987,75.103,147.987,77.827z"/>
	</g>
</g>
<g>
	<line fill="none" stroke="#000000" stroke-width="6" stroke-miterlimit="10" x1="339.441" y1="85.979" x2="409.442" y2="85.979"/>
	
		<line fill="none" stroke="#000000" stroke-width="6" stroke-miterlimit="10" x1="339.441" y1="109.363" x2="409.442" y2="109.363"/>
</g>
<g>
	<g>
		<path fill="#FFFFFF" d="M448.384,176.354c100.165,0,200.12,0,300,0c0-58.782,0-117.316,0-175.854c-100.107,0-199.987,0-300,0
			C448.384,59.153,448.384,117.612,448.384,176.354z"/>
		<path fill="#69F0AE" stroke="#000000" stroke-miterlimit="10" d="M448.384,176.354c0-58.742,0-117.201,0-175.854
			c100.013,0,199.893,0,300,0c0,58.538,0,117.072,0,175.854C648.504,176.354,548.549,176.354,448.384,176.354z M732.996,43.198
			c-6.29-0.419-11.785-2.413-15.916-7.12c-4.107-4.681-6.121-10.141-5.131-16.404c-73.658,0-147.173,0-220.799,0
			c-0.672,6.133-3.462,10.932-8.053,14.768c-4.511,3.769-9.871,5.455-15.432,6.177c0,32.85,0,65.321,0,97.834
			c0.731,0.101,1.238,0.178,1.747,0.24c10.815,1.307,18.403,7.736,21.154,18.183c0.499,1.895,1.605,1.8,2.983,1.8
			c72.207-0.006,144.412-0.015,216.62,0.031c2.079,0.003,2.76-0.613,3.134-2.699c1.264-7.025,4.813-12.616,11.51-15.621
			c2.497-1.121,5.309-1.541,8.183-2.336C732.996,106.673,732.996,75.128,732.996,43.198z"/>
		<path fill="#69F0AE" stroke="#000000" stroke-miterlimit="10" d="M654.721,86.139c0.076,31.155-25.452,56.773-56.6,56.798
			c-31.205,0.021-56.926-25.507-56.943-56.52c-0.018-31.755,25.377-57.025,57.287-57.008
			C629.428,29.427,654.644,54.855,654.721,86.139z M595.771,109.734c-5.801-1.326-8.122-5.379-9.674-10.253
			c-1.236-3.889-3.713-5.338-7.236-4.54c-3.101,0.704-4.779,3.414-4.232,7.248c0.924,6.479,4.736,11.029,10.355,13.908
			c3.341,1.709,7.074,2.648,10.875,4.021c0,1.359-0.004,3.012,0.001,4.66c0.007,1.796-0.136,3.771,2.404,3.912
			c2.553,0.139,3.04-1.865,3.257-3.744c0.207-1.805,0.045-3.654,0.045-5.287c2.844-0.803,5.307-1.287,7.611-2.183
			c7.941-3.087,12.617-10.503,12.391-19.367c-0.199-7.817-4.976-13.977-13.039-16.756c-2.236-0.771-4.502-1.458-6.68-2.161
			c0-6.121,0-12.055,0-18.172c3.648,1.404,5.432,4.001,6.533,7.311c1.314,3.946,3.941,5.383,7.34,4.234
			c3.008-1.019,4.481-4.074,3.393-7.654c-1.693-5.571-5.203-9.639-10.721-11.712c-2.104-0.791-4.349-1.206-6.786-1.863
			c0-1.621,0.05-3.266-0.013-4.905c-0.072-1.871-0.877-3.575-2.923-3.085c-1.104,0.263-2.322,1.817-2.671,3.024
			c-0.459,1.588-0.113,3.408-0.113,5.161c-1.278,0.176-2.089,0.295-2.902,0.4c-8.664,1.107-15.299,7.144-16.48,14.995
			c-1.395,9.269,2.142,15.65,11.047,19.636c2.631,1.179,5.414,2.016,8.217,3.043C595.771,96.224,595.771,102.853,595.771,109.734z"
			/>
		<path fill="#FFFFFF" stroke="#000000" stroke-miterlimit="10" d="M595.771,109.734c0-6.881,0-13.51,0-20.128
			c-2.803-1.026-5.586-1.864-8.217-3.043c-8.906-3.985-12.441-10.367-11.047-19.636c1.182-7.851,7.816-13.887,16.48-14.995
			c0.813-0.105,1.623-0.223,2.902-0.4c0-1.753-0.346-3.573,0.113-5.161c0.35-1.207,1.568-2.761,2.67-3.024
			c2.046-0.49,2.852,1.215,2.924,3.085c0.063,1.639,0.013,3.284,0.013,4.905c2.438,0.657,4.683,1.072,6.785,1.863
			c5.519,2.073,9.028,6.141,10.722,11.712c1.088,3.58-0.386,6.636-3.394,7.654c-3.398,1.148-6.024-0.288-7.34-4.234
			c-1.102-3.31-2.886-5.906-6.532-7.311c0,6.117,0,12.051,0,18.172c2.178,0.703,4.443,1.39,6.68,2.161
			c8.063,2.779,12.84,8.937,13.039,16.756c0.227,8.864-4.449,16.28-12.391,19.367c-2.305,0.896-4.768,1.38-7.613,2.183
			c0,1.633,0.164,3.482-0.043,5.287c-0.217,1.879-0.704,3.883-3.257,3.744c-2.542-0.141-2.397-2.116-2.404-3.912
			c-0.005-1.648-0.001-3.301-0.001-4.66c-3.8-1.373-7.533-2.313-10.874-4.021c-5.62-2.877-9.433-7.43-10.356-13.908
			c-0.547-3.834,1.132-6.544,4.232-7.248c3.523-0.798,6,0.651,7.236,4.54C587.649,104.355,589.971,108.408,595.771,109.734z
			 M601.793,91.039c0,5.834,0,11.463,0,17.133c4.942-1.131,7.656-3.945,7.893-8.038C609.956,95.394,608.074,93.166,601.793,91.039z
			 M595.871,77.828c0-2.725,0-5.211,0-7.696c0-2.437,0-4.872,0-7.388c-5.347,1.318-7.48,3.463-7.55,7.295
			C588.248,74.001,590.229,76.132,595.871,77.828z"/>
		<path fill="#69F0AE" stroke="#000000" stroke-miterlimit="10" d="M601.793,91.039c6.281,2.127,8.164,4.355,7.893,9.095
			c-0.236,4.093-2.95,6.905-7.893,8.038C601.793,102.501,601.793,96.871,601.793,91.039z"/>
		<path fill="#69F0AE" stroke="#000000" stroke-miterlimit="10" d="M595.871,77.828c-5.642-1.695-7.623-3.826-7.55-7.789
			c0.069-3.832,2.203-5.977,7.55-7.295c0,2.516,0,4.951,0,7.387C595.871,72.615,595.871,75.103,595.871,77.828z"/>
	</g>
</g>
<g>
	<g>
		<path fill="#F69321" d="M150.266,488.854C71.678,489.002,6.793,423.836,9.036,343.26c2.089-75.002,63.454-137.234,141.354-137.406
			c78.646-0.173,143.986,64.796,141.565,145.996C289.708,427.247,227.66,489.112,150.266,488.854z"/>
		<path fill="#FEFEFE" d="M280.015,347.459c0.035,71.018-57.838,129.045-128.262,129.531
			C79.297,477.493,20.652,418.35,20.935,347.135c0.284-71.582,58.032-129.283,129.92-129.266
			C222.219,217.886,279.981,275.842,280.015,347.459z"/>
		<path fill="#F69321" d="M251.91,343.961c2.004,51.797-36.494,99.006-91.301,104.389c-57.852,5.682-106.048-36.77-111.131-91.213
			c-5.378-57.615,36.741-105.52,90.919-110.76C201.104,240.505,250.453,287.506,251.91,343.961z"/>
		<path fill="#FEFEFE" d="M193.571,341.145c2.471,1.16,4.736,2.049,6.831,3.236c10.887,6.176,15.65,16.563,14.208,29.152
			c-2.422,21.152-15.805,29.92-33.945,31.854c-3.505,0.371-7.045,0.658-10.563,0.605c-2.327-0.035-2.701,0.863-2.668,2.893
			c0.104,6.834-0.042,13.67,0.087,20.502c0.042,2.176-0.597,2.898-2.788,2.783c-3.29-0.172-6.608-0.209-9.892,0.012
			c-2.617,0.174-3.118-0.912-3.071-3.254c0.132-6.596-0.068-13.201,0.103-19.795c0.065-2.516-0.742-3.145-3.181-3.127
			c-7.982,0.055-7.982-0.047-7.983,7.811c0,5.305-0.06,10.607,0.028,15.91c0.031,1.832-0.578,2.492-2.433,2.434
			c-3.649-0.115-7.309-0.129-10.956,0c-1.965,0.07-2.343-0.775-2.325-2.508c0.07-6.955-0.054-13.908,0.077-20.857
			c0.042-2.176-0.578-2.813-2.77-2.781c-8.364,0.123-16.735-0.074-25.097,0.123c-2.784,0.064-3.441-0.879-3.228-3.42
			c0.315-3.75,0.453-7.523,0.495-11.291c0.019-1.684,0.578-2.293,2.257-2.248c3.297,0.088,6.602-0.063,9.898,0.043
			c3.423,0.113,5.294-1.592,5.949-4.773c0.283-1.371,0.408-2.797,0.409-4.197c0.024-22.625,0.021-45.252,0.015-67.874
			c-0.001-5.88-1.952-7.823-7.849-7.813c-3.063,0.004-6.133-0.042-9.186,0.159c-2.417,0.157-3.408-0.586-3.24-3.141
			c0.23-3.522,0.309-7.073,0.14-10.596c-0.119-2.464,0.884-2.953,3.083-2.931c8.72,0.09,17.441-0.047,26.16,0.079
			c2.311,0.033,3.018-0.617,2.966-2.945c-0.147-6.596,0.026-13.198-0.095-19.795c-0.039-2.126,0.532-2.926,2.755-2.81
			c3.409,0.178,6.838,0.173,10.248,0.009c2.247-0.108,2.773,0.777,2.738,2.862c-0.108,6.598,0.03,13.198-0.074,19.796
			c-0.033,2.071,0.474,2.853,2.728,2.893c8.414,0.15,8.413,0.238,8.413-8.135c0.001-4.714,0.173-9.435-0.063-14.136
			c-0.139-2.761,0.846-3.45,3.41-3.287c3.168,0.202,6.367,0.169,9.541,0.001c2.143-0.113,2.866,0.521,2.819,2.747
			c-0.137,6.713,0.057,13.435-0.104,20.147c-0.057,2.392,0.617,3.087,3.049,3.39c8.806,1.099,17.264,3.304,24.936,8.146
			c15.938,10.061,14,32.152,1.066,41.875C195.554,339.579,194.662,340.295,193.571,341.145z"/>
		<path fill="#F69321" d="M140.708,370.684c-0.001-4.943,0.021-9.889-0.016-14.832c-0.011-1.443,0.125-2.59,1.994-2.541
			c9.157,0.248,18.366-0.758,27.448,1.166c1.146,0.244,2.298,0.531,3.384,0.961c5.109,2.025,9.71,4.707,10.237,10.893
			c0.619,7.254-1.274,13.572-7.938,17.596c-4.116,2.49-8.7,3.57-13.441,3.695c-6.352,0.164-12.713-0.012-19.067,0.102
			c-1.964,0.037-2.697-0.51-2.642-2.563C140.798,380.336,140.71,375.51,140.708,370.684z"/>
		<path fill="#F69321" d="M140.711,321.401c-0.001-4.466,0.005-8.935-0.004-13.401c-0.004-1.213-0.109-2.386,1.706-2.349
			c7.383,0.145,14.812-0.56,22.086,1.394c9.08,2.438,12.857,7.988,11.426,16.872c-1.286,7.99-8.018,13.394-16.173,13.185
			c-5.403-0.141-10.817-0.156-16.219,0.023c-2.167,0.072-2.932-0.461-2.862-2.678C140.81,330.102,140.712,325.75,140.711,321.401z"
			/>
	</g>
</g>
<g>
	<g>
		<path fill="#F69321" d="M597.716,488.854c-78.589,0.148-143.474-65.018-141.23-145.594
			c2.089-75.002,63.454-137.234,141.354-137.406c78.646-0.173,143.986,64.796,141.565,145.996
			C737.157,427.247,675.109,489.112,597.716,488.854z"/>
		<path fill="#FEFEFE" d="M727.464,347.459c0.035,71.018-57.838,129.045-128.262,129.531
			c-72.455,0.502-131.101-58.641-130.818-129.855c0.283-71.582,58.032-129.283,129.92-129.266
			C669.668,217.886,727.431,275.842,727.464,347.459z"/>
		<path fill="#F69321" d="M699.358,343.961c2.005,51.797-36.493,99.006-91.301,104.389c-57.852,5.682-106.049-36.77-111.131-91.213
			c-5.378-57.615,36.74-105.52,90.92-110.76C648.554,240.505,697.901,287.506,699.358,343.961z"/>
		<path fill="#FEFEFE" d="M641.021,341.145c2.471,1.16,4.736,2.049,6.83,3.236c10.887,6.176,15.65,16.563,14.209,29.152
			c-2.422,21.152-15.805,29.92-33.945,31.854c-3.506,0.371-7.045,0.658-10.563,0.605c-2.327-0.035-2.7,0.863-2.669,2.893
			c0.104,6.834-0.042,13.67,0.088,20.502c0.041,2.176-0.598,2.898-2.788,2.783c-3.29-0.172-6.608-0.209-9.892,0.012
			c-2.617,0.174-3.119-0.912-3.072-3.254c0.133-6.596-0.068-13.201,0.104-19.795c0.064-2.516-0.742-3.145-3.182-3.127
			c-7.982,0.055-7.982-0.047-7.982,7.811c0,5.305-0.061,10.607,0.027,15.91c0.031,1.832-0.578,2.492-2.434,2.434
			c-3.648-0.115-7.309-0.129-10.955,0c-1.965,0.07-2.344-0.775-2.326-2.508c0.07-6.955-0.054-13.908,0.078-20.857
			c0.042-2.176-0.578-2.813-2.77-2.781c-8.365,0.123-16.735-0.074-25.098,0.123c-2.783,0.064-3.44-0.879-3.227-3.42
			c0.314-3.75,0.453-7.523,0.494-11.291c0.019-1.684,0.578-2.293,2.257-2.248c3.298,0.088,6.602-0.063,9.898,0.043
			c3.423,0.113,5.294-1.592,5.948-4.773c0.283-1.371,0.408-2.797,0.41-4.197c0.023-22.625,0.021-45.252,0.015-67.874
			c-0.001-5.88-1.952-7.823-7.849-7.813c-3.063,0.004-6.133-0.042-9.186,0.159c-2.416,0.157-3.408-0.586-3.24-3.141
			c0.23-3.522,0.31-7.073,0.141-10.596c-0.119-2.464,0.884-2.953,3.082-2.931c8.721,0.09,17.441-0.047,26.16,0.079
			c2.311,0.033,3.019-0.617,2.967-2.945c-0.146-6.596,0.026-13.198-0.095-19.795c-0.039-2.126,0.532-2.926,2.755-2.81
			c3.408,0.178,6.838,0.173,10.248,0.009c2.246-0.108,2.772,0.777,2.738,2.862c-0.108,6.598,0.029,13.198-0.074,19.796
			c-0.033,2.071,0.474,2.853,2.729,2.893c8.414,0.15,8.412,0.238,8.412-8.135c0.001-4.714,0.174-9.435-0.063-14.136
			c-0.14-2.761,0.847-3.45,3.409-3.287c3.168,0.202,6.367,0.169,9.541,0.001c2.143-0.113,2.866,0.521,2.819,2.747
			c-0.137,6.713,0.057,13.435-0.104,20.147c-0.057,2.392,0.617,3.087,3.05,3.39c8.806,1.099,17.264,3.304,24.937,8.146
			c15.938,10.061,13.999,32.152,1.065,41.875C643.003,339.579,642.111,340.295,641.021,341.145z"/>
		<path fill="#F69321" d="M588.157,370.684c-0.001-4.943,0.021-9.889-0.016-14.832c-0.011-1.443,0.126-2.59,1.994-2.541
			c9.156,0.248,18.366-0.758,27.447,1.166c1.146,0.244,2.299,0.531,3.385,0.961c5.108,2.025,9.709,4.707,10.236,10.893
			c0.619,7.254-1.273,13.572-7.938,17.596c-4.115,2.49-8.699,3.57-13.441,3.695c-6.352,0.164-12.713-0.012-19.066,0.102
			c-1.965,0.037-2.697-0.51-2.643-2.563C588.247,380.336,588.159,375.51,588.157,370.684z"/>
		<path fill="#F69321" d="M588.161,321.401c-0.002-4.466,0.005-8.935-0.005-13.401c-0.004-1.213-0.109-2.386,1.706-2.349
			c7.383,0.145,14.812-0.56,22.086,1.394c9.08,2.438,12.857,7.988,11.426,16.872c-1.286,7.99-8.018,13.394-16.173,13.185
			c-5.403-0.141-10.817-0.156-16.219,0.023c-2.167,0.072-2.932-0.461-2.862-2.678C588.259,330.102,588.161,325.75,588.161,321.401z"
			/>
	</g>
</g>
<g>
	<line fill="none" stroke="#000000" stroke-width="6" stroke-miterlimit="10" x1="339.442" y1="326.53" x2="409.442" y2="326.53"/>
	
		<line fill="none" stroke="#000000" stroke-width="6" stroke-miterlimit="10" x1="339.442" y1="349.915" x2="409.442" y2="349.915"/>
	
		<line fill="none" stroke="#000000" stroke-width="6" stroke-miterlimit="10" x1="339.442" y1="387.724" x2="409.442" y2="287.938"/>
</g>
</svg>
