<?xml version="1.0" encoding="utf-8"?>
<!DOCTYPE svg PUBLIC "-//W3C//DTD SVG 1.1//EN" "http://www.w3.org/Graphics/SVG/1.1/DTD/svg11.dtd">
<svg version="1.1" xmlns="http://www.w3.org/2000/svg" xmlns:xlink="http://www.w3.org/1999/xlink" x="0px" y="0px" width="306px"
	 height="232.943px" viewBox="0 0 306 232.943" enable-background="new 0 0 306 232.943" xml:space="preserve">
<g id="Layer_4">
	<ellipse fill="#41B2E6" stroke="#000000" stroke-width="6" stroke-miterlimit="10" cx="153" cy="61.443" rx="150" ry="57"/>
</g>
<g id="Layer_3">
	<g>
		<g>
			<path fill-rule="evenodd" clip-rule="evenodd" fill="#F69321" d="M214.267,66.336c-17.01-4.334-27.424-22.036-22.461-39.342
				c4.619-16.108,21.352-26.161,38.212-21.87c17.022,4.333,27.548,22.018,22.511,39.448
				C247.853,60.757,230.994,70.693,214.267,66.336z"/>
			<path fill-rule="evenodd" clip-rule="evenodd" fill="#FEFEFE" d="M250.19,42.959c-3.939,15.364-19.683,24.701-34.943,20.895
				c-15.701-3.918-25.102-19.971-21.084-35.36c4.039-15.469,19.738-24.742,35.287-20.744
				C244.886,11.718,254.163,27.465,250.19,42.959z"/>
			<path fill-rule="evenodd" clip-rule="evenodd" fill="#F69321" d="M244.306,40.641c-2.446,11.316-13.396,19.388-25.551,17.508
				c-12.832-1.986-20.898-13.846-18.973-25.905c2.037-12.763,13.811-20.785,25.821-18.908
				C239.062,15.438,247.126,28.347,244.306,40.641z"/>
			<path fill-rule="evenodd" clip-rule="evenodd" fill="#FEFEFE" d="M231.841,36.789c0.47,0.389,0.91,0.707,1.298,1.08
				c2.012,1.941,2.465,4.453,1.453,7.096c-1.699,4.441-5.08,5.595-9.113,5.004c-0.778-0.114-1.56-0.248-2.317-0.455
				c-0.502-0.137-0.633,0.037-0.738,0.478c-0.357,1.483-0.768,2.954-1.121,4.439c-0.111,0.474-0.289,0.594-0.756,0.448
				c-0.703-0.222-1.418-0.414-2.143-0.549c-0.574-0.106-0.623-0.369-0.482-0.873c0.395-1.42,0.719-2.86,1.123-4.277
				c0.152-0.541,0.014-0.721-0.516-0.853c-1.729-0.433-1.723-0.454-2.16,1.246c-0.295,1.147-0.602,2.292-0.877,3.442
				c-0.096,0.398-0.264,0.508-0.662,0.392c-0.785-0.228-1.574-0.435-2.371-0.608c-0.43-0.094-0.463-0.299-0.363-0.672
				c0.402-1.5,0.76-3.012,1.176-4.508c0.129-0.468,0.029-0.641-0.445-0.755c-1.816-0.438-3.615-0.946-5.436-1.368
				c-0.605-0.141-0.695-0.381-0.508-0.92c0.275-0.793,0.516-1.602,0.734-2.415c0.098-0.362,0.252-0.463,0.613-0.36
				c0.709,0.202,1.432,0.354,2.139,0.56c0.732,0.214,1.234-0.05,1.553-0.702c0.137-0.281,0.242-0.582,0.322-0.885
				c1.262-4.895,2.516-9.788,3.773-14.683c0.326-1.271,0.012-1.8-1.264-2.126c-0.662-0.169-1.324-0.35-1.996-0.476
				c-0.531-0.101-0.705-0.316-0.527-0.86c0.246-0.749,0.461-1.513,0.619-2.284c0.113-0.54,0.357-0.59,0.83-0.462
				c1.881,0.503,3.775,0.959,5.654,1.47c0.498,0.136,0.688,0.034,0.807-0.472c0.334-1.435,0.738-2.854,1.078-4.288
				c0.109-0.462,0.277-0.603,0.754-0.454c0.727,0.228,1.468,0.417,2.214,0.571c0.492,0.102,0.557,0.322,0.434,0.772
				c-0.39,1.421-0.727,2.856-1.116,4.278c-0.122,0.446-0.056,0.644,0.43,0.777c1.813,0.5,1.807,0.52,2.271-1.292
				c0.262-1.02,0.563-2.031,0.772-3.062c0.123-0.604,0.375-0.699,0.921-0.522c0.674,0.221,1.367,0.391,2.063,0.531
				c0.47,0.094,0.591,0.271,0.456,0.75c-0.402,1.445-0.733,2.909-1.142,4.353c-0.145,0.514-0.037,0.702,0.472,0.902
				c1.844,0.727,3.551,1.674,4.941,3.147c2.889,3.061,1.242,7.734-2.096,9.118C232.355,36.561,232.124,36.667,231.841,36.789z"/>
			<path fill-rule="evenodd" clip-rule="evenodd" fill="#F69321" d="M218.765,40.242c0.273-1.07,0.553-2.138,0.82-3.209
				c0.078-0.313,0.172-0.554,0.572-0.439c1.967,0.563,4.015,0.857,5.873,1.777c0.233,0.116,0.468,0.243,0.678,0.396
				c0.992,0.723,1.84,1.559,1.61,2.925c-0.27,1.604-1.03,2.865-2.695,3.366c-1.028,0.309-2.08,0.289-3.112,0.052
				c-1.383-0.317-2.75-0.708-4.129-1.037c-0.428-0.103-0.557-0.261-0.43-0.702C218.247,42.336,218.497,41.285,218.765,40.242z"/>
			<path fill-rule="evenodd" clip-rule="evenodd" fill="#F69321" d="M221.503,29.582c0.248-0.967,0.498-1.933,0.744-2.899
				c0.068-0.263,0.109-0.522,0.5-0.414c1.589,0.442,3.234,0.703,4.699,1.529c1.829,1.033,2.338,2.443,1.535,4.285
				c-0.723,1.658-2.479,2.453-4.232,1.953c-1.16-0.33-2.33-0.634-3.51-0.896c-0.471-0.104-0.607-0.263-0.469-0.737
				C221.042,31.47,221.263,30.522,221.503,29.582z"/>
		</g>
		<g>
			<path fill-rule="evenodd" clip-rule="evenodd" fill="#F69321" d="M234.267,86.336c-17.01-4.334-27.424-22.036-22.461-39.342
				c4.619-16.108,21.352-26.161,38.213-21.87c17.023,4.333,27.547,22.018,22.51,39.448
				C267.854,80.757,250.995,90.692,234.267,86.336z"/>
			<path fill-rule="evenodd" clip-rule="evenodd" fill="#FEFEFE" d="M270.19,62.959c-3.938,15.364-19.682,24.701-34.943,20.894
				c-15.701-3.918-25.102-19.97-21.084-35.359c4.039-15.469,19.738-24.742,35.287-20.744
				C264.888,31.718,274.163,47.465,270.19,62.959z"/>
			<path fill-rule="evenodd" clip-rule="evenodd" fill="#F69321" d="M264.308,60.641c-2.447,11.316-13.398,19.389-25.553,17.508
				c-12.832-1.986-20.898-13.846-18.973-25.905c2.037-12.763,13.811-20.785,25.822-18.908
				C259.063,35.438,267.128,48.347,264.308,60.641z"/>
			<path fill-rule="evenodd" clip-rule="evenodd" fill="#FEFEFE" d="M251.841,56.789c0.471,0.389,0.91,0.707,1.299,1.08
				c2.012,1.941,2.465,4.453,1.453,7.096c-1.699,4.441-5.08,5.595-9.113,5.004c-0.779-0.114-1.561-0.248-2.318-0.455
				c-0.502-0.137-0.633,0.037-0.738,0.478c-0.357,1.483-0.768,2.954-1.121,4.439c-0.111,0.474-0.289,0.594-0.756,0.448
				c-0.703-0.222-1.418-0.414-2.143-0.549c-0.574-0.106-0.623-0.369-0.482-0.873c0.395-1.42,0.719-2.86,1.123-4.277
				c0.152-0.541,0.014-0.721-0.516-0.853c-1.729-0.433-1.723-0.454-2.16,1.246c-0.295,1.147-0.602,2.292-0.877,3.442
				c-0.096,0.398-0.264,0.508-0.662,0.392c-0.785-0.228-1.574-0.435-2.371-0.608c-0.43-0.094-0.463-0.299-0.363-0.672
				c0.402-1.5,0.76-3.012,1.176-4.508c0.129-0.468,0.029-0.641-0.445-0.755c-1.816-0.438-3.615-0.946-5.436-1.368
				c-0.605-0.141-0.695-0.381-0.508-0.92c0.275-0.793,0.516-1.602,0.734-2.415c0.098-0.362,0.252-0.463,0.613-0.36
				c0.709,0.202,1.432,0.354,2.139,0.56c0.732,0.214,1.234-0.05,1.553-0.702c0.137-0.281,0.242-0.582,0.322-0.885
				c1.262-4.895,2.516-9.788,3.773-14.683c0.326-1.271,0.012-1.8-1.264-2.126c-0.662-0.169-1.324-0.35-1.996-0.476
				c-0.531-0.101-0.705-0.316-0.527-0.86c0.246-0.749,0.461-1.513,0.619-2.284c0.113-0.54,0.357-0.59,0.83-0.462
				c1.881,0.503,3.775,0.959,5.654,1.47c0.498,0.136,0.688,0.034,0.807-0.472c0.334-1.435,0.738-2.854,1.078-4.288
				c0.109-0.462,0.277-0.603,0.754-0.454c0.727,0.228,1.469,0.417,2.215,0.571c0.492,0.102,0.557,0.322,0.434,0.772
				c-0.391,1.421-0.727,2.856-1.117,4.278c-0.121,0.446-0.055,0.644,0.43,0.777c1.813,0.5,1.807,0.52,2.271-1.292
				c0.262-1.02,0.564-2.031,0.773-3.062c0.123-0.604,0.375-0.699,0.92-0.522c0.674,0.221,1.367,0.391,2.064,0.531
				c0.469,0.094,0.59,0.271,0.455,0.75c-0.402,1.445-0.732,2.909-1.141,4.353c-0.145,0.514-0.037,0.702,0.471,0.902
				c1.844,0.727,3.552,1.674,4.942,3.147c2.889,3.061,1.242,7.734-2.097,9.118C252.356,56.561,252.124,56.667,251.841,56.789z"/>
			<path fill-rule="evenodd" clip-rule="evenodd" fill="#F69321" d="M238.765,60.242c0.273-1.07,0.553-2.138,0.82-3.209
				c0.078-0.313,0.172-0.554,0.572-0.439c1.967,0.563,4.016,0.857,5.873,1.777c0.234,0.116,0.469,0.243,0.678,0.396
				c0.992,0.723,1.84,1.559,1.611,2.925c-0.27,1.604-1.031,2.865-2.695,3.366c-1.029,0.309-2.08,0.289-3.113,0.052
				c-1.383-0.317-2.75-0.708-4.129-1.037c-0.428-0.103-0.557-0.261-0.43-0.702C238.247,62.336,238.497,61.285,238.765,60.242z"/>
			<path fill-rule="evenodd" clip-rule="evenodd" fill="#F69321" d="M241.503,49.582c0.248-0.967,0.498-1.933,0.744-2.899
				c0.068-0.263,0.109-0.522,0.5-0.414c1.59,0.442,3.234,0.703,4.699,1.529c1.83,1.033,2.338,2.443,1.535,4.285
				c-0.723,1.658-2.479,2.453-4.232,1.953c-1.16-0.33-2.33-0.634-3.51-0.896c-0.471-0.104-0.607-0.263-0.469-0.737
				C241.042,51.47,241.263,50.522,241.503,49.582z"/>
		</g>
		<g>
			<path fill-rule="evenodd" clip-rule="evenodd" fill="#F69321" d="M254.268,106.336c-17.011-4.334-27.425-22.036-22.462-39.342
				c4.619-16.108,21.352-26.161,38.213-21.87c17.021,4.333,27.547,22.018,22.51,39.448
				C287.853,100.757,270.995,110.693,254.268,106.336z"/>
			<path fill-rule="evenodd" clip-rule="evenodd" fill="#FEFEFE" d="M290.19,82.959c-3.939,15.364-19.682,24.701-34.942,20.895
				c-15.702-3.919-25.103-19.971-21.085-35.36c4.039-15.469,19.738-24.742,35.287-20.744
				C284.886,51.718,294.163,67.465,290.19,82.959z"/>
			<path fill-rule="evenodd" clip-rule="evenodd" fill="#F69321" d="M284.306,80.641c-2.445,11.316-13.396,19.388-25.551,17.508
				c-12.832-1.986-20.898-13.846-18.973-25.905c2.037-12.763,13.811-20.785,25.822-18.908
				C279.062,55.438,287.126,68.347,284.306,80.641z"/>
			<path fill-rule="evenodd" clip-rule="evenodd" fill="#FEFEFE" d="M271.841,76.789c0.471,0.389,0.91,0.707,1.299,1.08
				c2.012,1.941,2.465,4.453,1.453,7.096c-1.699,4.441-5.08,5.595-9.113,5.004c-0.779-0.114-1.561-0.248-2.317-0.455
				c-0.502-0.137-0.633,0.037-0.739,0.478c-0.356,1.483-0.768,2.954-1.12,4.439c-0.111,0.474-0.289,0.594-0.757,0.448
				c-0.702-0.222-1.418-0.414-2.142-0.549c-0.575-0.106-0.623-0.369-0.482-0.873c0.395-1.42,0.719-2.86,1.122-4.277
				c0.153-0.541,0.014-0.721-0.515-0.853c-1.729-0.433-1.724-0.454-2.16,1.246c-0.296,1.147-0.603,2.292-0.878,3.442
				c-0.096,0.398-0.264,0.508-0.662,0.392c-0.784-0.228-1.574-0.435-2.371-0.608c-0.43-0.094-0.463-0.299-0.363-0.672
				c0.402-1.5,0.76-3.012,1.176-4.508c0.13-0.468,0.03-0.641-0.445-0.755c-1.816-0.438-3.615-0.946-5.436-1.368
				c-0.605-0.141-0.695-0.381-0.508-0.92c0.275-0.793,0.516-1.602,0.734-2.415c0.098-0.362,0.252-0.463,0.613-0.36
				c0.709,0.202,1.432,0.354,2.139,0.56c0.732,0.214,1.234-0.05,1.553-0.702c0.137-0.281,0.242-0.582,0.322-0.885
				c1.262-4.895,2.517-9.788,3.773-14.683c0.326-1.271,0.013-1.8-1.264-2.126c-0.662-0.169-1.324-0.35-1.996-0.476
				c-0.531-0.101-0.705-0.316-0.527-0.86c0.246-0.749,0.461-1.513,0.619-2.284c0.113-0.54,0.357-0.59,0.831-0.462
				c1.881,0.503,3.775,0.959,5.654,1.47c0.498,0.136,0.688,0.034,0.806-0.472c0.335-1.435,0.738-2.854,1.079-4.288
				c0.109-0.462,0.277-0.603,0.753-0.454c0.727,0.228,1.469,0.417,2.215,0.571c0.492,0.102,0.557,0.322,0.434,0.772
				c-0.391,1.421-0.727,2.856-1.117,4.278c-0.121,0.446-0.055,0.644,0.43,0.777c1.813,0.5,1.807,0.52,2.271-1.292
				c0.262-1.02,0.564-2.031,0.773-3.062c0.123-0.604,0.375-0.699,0.92-0.522c0.674,0.221,1.367,0.391,2.064,0.531
				c0.469,0.094,0.59,0.271,0.455,0.75c-0.402,1.445-0.732,2.909-1.141,4.353c-0.145,0.514-0.037,0.702,0.471,0.902
				c1.844,0.727,3.551,1.674,4.941,3.147c2.889,3.061,1.242,7.734-2.096,9.118C272.356,76.561,272.124,76.667,271.841,76.789z"/>
			<path fill-rule="evenodd" clip-rule="evenodd" fill="#F69321" d="M258.766,80.242c0.273-1.07,0.553-2.138,0.82-3.209
				c0.077-0.313,0.171-0.554,0.572-0.439c1.967,0.563,4.015,0.857,5.872,1.777c0.234,0.116,0.469,0.243,0.678,0.396
				c0.992,0.723,1.84,1.559,1.611,2.925c-0.27,1.604-1.031,2.865-2.695,3.366c-1.029,0.309-2.08,0.289-3.113,0.052
				c-1.383-0.317-2.749-0.708-4.129-1.037c-0.428-0.103-0.556-0.261-0.43-0.702C258.248,82.336,258.498,81.285,258.766,80.242z"/>
			<path fill-rule="evenodd" clip-rule="evenodd" fill="#F69321" d="M261.504,69.582c0.248-0.967,0.497-1.933,0.743-2.899
				c0.068-0.263,0.109-0.522,0.5-0.414c1.59,0.442,3.234,0.703,4.699,1.529c1.83,1.033,2.338,2.443,1.535,4.285
				c-0.723,1.658-2.479,2.453-4.232,1.953c-1.16-0.33-2.33-0.634-3.509-0.896c-0.472-0.104-0.608-0.263-0.47-0.737
				C261.042,71.47,261.263,70.522,261.504,69.582z"/>
		</g>
	</g>
	<g>
		<g>
			<path fill-rule="evenodd" clip-rule="evenodd" fill="#F69321" d="M158.769,62.205c-17.01-4.334-27.424-22.036-22.462-39.342
				c4.619-16.108,21.352-26.161,38.213-21.87c17.022,4.333,27.547,22.018,22.51,39.448
				C192.355,56.625,175.497,66.561,158.769,62.205z"/>
			<path fill-rule="evenodd" clip-rule="evenodd" fill="#FEFEFE" d="M194.692,38.828c-3.938,15.364-19.682,24.701-34.943,20.894
				c-15.701-3.918-25.103-19.97-21.084-35.359c4.039-15.469,19.737-24.742,35.287-20.744
				C189.389,7.587,198.665,23.333,194.692,38.828z"/>
			<path fill-rule="evenodd" clip-rule="evenodd" fill="#F69321" d="M188.809,36.509c-2.446,11.316-13.397,19.389-25.552,17.508
				c-12.832-1.986-20.898-13.846-18.972-25.905c2.037-12.763,13.81-20.785,25.822-18.908
				C183.564,11.306,191.629,24.215,188.809,36.509z"/>
			<path fill-rule="evenodd" clip-rule="evenodd" fill="#FEFEFE" d="M176.343,32.658c0.471,0.389,0.91,0.707,1.299,1.08
				c2.012,1.941,2.465,4.453,1.453,7.096c-1.699,4.441-5.08,5.595-9.113,5.004c-0.779-0.114-1.561-0.248-2.318-0.455
				c-0.502-0.137-0.633,0.037-0.738,0.478c-0.357,1.483-0.768,2.954-1.121,4.439c-0.111,0.474-0.289,0.594-0.756,0.448
				c-0.703-0.222-1.418-0.414-2.143-0.549c-0.575-0.106-0.623-0.369-0.482-0.873c0.394-1.42,0.718-2.86,1.123-4.277
				c0.152-0.541,0.014-0.721-0.516-0.853c-1.729-0.433-1.723-0.454-2.16,1.246c-0.296,1.147-0.603,2.292-0.878,3.442
				c-0.096,0.398-0.264,0.508-0.662,0.392c-0.784-0.228-1.574-0.435-2.37-0.608c-0.43-0.094-0.464-0.299-0.363-0.672
				c0.401-1.5,0.76-3.012,1.175-4.508c0.13-0.468,0.03-0.641-0.444-0.755c-1.816-0.438-3.615-0.946-5.437-1.368
				c-0.605-0.141-0.695-0.381-0.508-0.92c0.276-0.793,0.516-1.602,0.734-2.415c0.099-0.362,0.252-0.463,0.614-0.36
				c0.708,0.202,1.431,0.354,2.138,0.56c0.733,0.214,1.234-0.05,1.553-0.702c0.137-0.281,0.243-0.582,0.322-0.885
				c1.262-4.895,2.517-9.788,3.773-14.683c0.326-1.271,0.013-1.8-1.264-2.126c-0.662-0.169-1.324-0.35-1.995-0.476
				c-0.532-0.101-0.705-0.316-0.527-0.86c0.246-0.749,0.461-1.513,0.619-2.284c0.112-0.54,0.356-0.59,0.83-0.462
				c1.881,0.503,3.775,0.959,5.654,1.47c0.498,0.136,0.688,0.034,0.807-0.472c0.334-1.435,0.738-2.854,1.078-4.288
				c0.109-0.462,0.277-0.603,0.754-0.454c0.727,0.228,1.469,0.417,2.215,0.571c0.492,0.102,0.557,0.322,0.434,0.772
				c-0.391,1.421-0.727,2.856-1.117,4.278c-0.121,0.446-0.055,0.644,0.43,0.777c1.813,0.5,1.807,0.52,2.271-1.292
				c0.262-1.02,0.564-2.031,0.773-3.062c0.123-0.604,0.375-0.699,0.92-0.522c0.674,0.221,1.367,0.391,2.064,0.531
				c0.469,0.094,0.59,0.271,0.455,0.75c-0.402,1.445-0.732,2.909-1.141,4.353c-0.145,0.514-0.037,0.702,0.471,0.902
				c1.844,0.727,3.551,1.674,4.941,3.147c2.889,3.061,1.242,7.734-2.096,9.118C176.858,32.429,176.626,32.536,176.343,32.658z"/>
			<path fill-rule="evenodd" clip-rule="evenodd" fill="#F69321" d="M163.267,36.111c0.273-1.07,0.553-2.138,0.82-3.209
				c0.078-0.313,0.172-0.554,0.572-0.439c1.967,0.563,4.016,0.857,5.873,1.777c0.234,0.116,0.469,0.243,0.678,0.396
				c0.992,0.723,1.84,1.559,1.611,2.925c-0.27,1.604-1.031,2.865-2.695,3.366c-1.029,0.309-2.08,0.289-3.113,0.052
				c-1.383-0.317-2.75-0.708-4.129-1.037c-0.428-0.103-0.556-0.261-0.43-0.702C162.749,38.205,162.999,37.154,163.267,36.111z"/>
			<path fill-rule="evenodd" clip-rule="evenodd" fill="#F69321" d="M166.005,25.451c0.248-0.967,0.498-1.933,0.744-2.899
				c0.068-0.263,0.109-0.522,0.5-0.414c1.59,0.442,3.234,0.703,4.699,1.529c1.83,1.033,2.338,2.443,1.535,4.285
				c-0.723,1.658-2.479,2.453-4.232,1.953c-1.16-0.33-2.33-0.634-3.51-0.896c-0.471-0.104-0.607-0.263-0.469-0.737
				C165.544,27.338,165.765,26.391,166.005,25.451z"/>
		</g>
		<g>
			<path fill-rule="evenodd" clip-rule="evenodd" fill="#F69321" d="M178.769,82.205c-17.009-4.334-27.423-22.036-22.461-39.342
				c4.619-16.108,21.352-26.161,38.212-21.87c17.022,4.333,27.548,22.018,22.511,39.448
				C212.354,76.626,195.496,86.562,178.769,82.205z"/>
			<path fill-rule="evenodd" clip-rule="evenodd" fill="#FEFEFE" d="M214.692,58.828c-3.939,15.364-19.683,24.701-34.943,20.895
				c-15.701-3.918-25.102-19.971-21.083-35.36c4.039-15.469,19.738-24.742,35.287-20.744
				C209.388,27.587,218.665,43.333,214.692,58.828z"/>
			<path fill-rule="evenodd" clip-rule="evenodd" fill="#F69321" d="M208.808,56.509c-2.446,11.316-13.396,19.388-25.551,17.508
				c-12.832-1.986-20.898-13.846-18.973-25.905c2.037-12.763,13.811-20.785,25.821-18.908
				C203.563,31.306,211.628,44.215,208.808,56.509z"/>
			<path fill-rule="evenodd" clip-rule="evenodd" fill="#FEFEFE" d="M196.343,52.658c0.47,0.389,0.91,0.707,1.298,1.08
				c2.012,1.941,2.465,4.453,1.453,7.096c-1.699,4.441-5.08,5.595-9.113,5.004c-0.778-0.114-1.56-0.248-2.317-0.455
				c-0.502-0.137-0.633,0.037-0.738,0.478c-0.357,1.483-0.768,2.954-1.121,4.439c-0.111,0.474-0.289,0.594-0.756,0.448
				c-0.703-0.222-1.418-0.414-2.143-0.549c-0.574-0.106-0.623-0.369-0.482-0.873c0.395-1.42,0.719-2.86,1.123-4.277
				c0.152-0.541,0.014-0.721-0.516-0.853c-1.729-0.433-1.723-0.454-2.16,1.246c-0.295,1.147-0.602,2.292-0.877,3.442
				c-0.096,0.398-0.264,0.508-0.662,0.392c-0.785-0.228-1.574-0.435-2.371-0.608c-0.43-0.094-0.463-0.299-0.363-0.672
				c0.402-1.5,0.76-3.012,1.176-4.508c0.129-0.468,0.029-0.641-0.445-0.755c-1.816-0.438-3.615-0.946-5.436-1.368
				c-0.605-0.141-0.695-0.381-0.508-0.92c0.275-0.793,0.516-1.602,0.734-2.415c0.098-0.362,0.252-0.463,0.613-0.36
				c0.709,0.202,1.432,0.354,2.139,0.56c0.732,0.214,1.234-0.05,1.553-0.702c0.137-0.281,0.242-0.582,0.322-0.885
				c1.262-4.895,2.516-9.788,3.773-14.683c0.326-1.271,0.012-1.8-1.264-2.126c-0.662-0.169-1.324-0.35-1.996-0.476
				c-0.531-0.101-0.705-0.316-0.527-0.86c0.246-0.749,0.461-1.513,0.619-2.284c0.113-0.54,0.357-0.59,0.83-0.462
				c1.881,0.503,3.775,0.959,5.654,1.47c0.498,0.136,0.688,0.034,0.807-0.472c0.334-1.435,0.738-2.854,1.078-4.288
				c0.109-0.462,0.277-0.603,0.754-0.454c0.727,0.228,1.468,0.417,2.214,0.571c0.492,0.102,0.557,0.322,0.434,0.772
				c-0.39,1.421-0.727,2.856-1.116,4.278c-0.122,0.446-0.056,0.644,0.43,0.777c1.813,0.5,1.807,0.52,2.271-1.292
				c0.262-1.02,0.563-2.031,0.772-3.062c0.123-0.604,0.375-0.699,0.921-0.522c0.674,0.221,1.367,0.391,2.063,0.531
				c0.47,0.094,0.591,0.271,0.456,0.75c-0.402,1.445-0.733,2.909-1.142,4.353c-0.145,0.514-0.037,0.702,0.472,0.902
				c1.844,0.727,3.551,1.674,4.941,3.147c2.889,3.061,1.242,7.734-2.096,9.118C196.857,52.429,196.626,52.536,196.343,52.658z"/>
			<path fill-rule="evenodd" clip-rule="evenodd" fill="#F69321" d="M183.267,56.111c0.273-1.07,0.553-2.138,0.82-3.209
				c0.078-0.313,0.172-0.554,0.572-0.439c1.967,0.563,4.015,0.857,5.873,1.777c0.233,0.116,0.468,0.243,0.678,0.396
				c0.992,0.723,1.84,1.559,1.61,2.925c-0.27,1.604-1.03,2.865-2.695,3.366c-1.028,0.309-2.08,0.289-3.112,0.052
				c-1.383-0.317-2.75-0.708-4.129-1.037c-0.428-0.103-0.557-0.261-0.43-0.702C182.749,58.205,182.999,57.154,183.267,56.111z"/>
			<path fill-rule="evenodd" clip-rule="evenodd" fill="#F69321" d="M186.005,45.451c0.248-0.967,0.498-1.933,0.744-2.899
				c0.068-0.263,0.109-0.522,0.5-0.414c1.589,0.442,3.234,0.703,4.699,1.529c1.829,1.033,2.338,2.443,1.535,4.285
				c-0.723,1.658-2.479,2.453-4.232,1.953c-1.16-0.33-2.33-0.634-3.51-0.896c-0.471-0.104-0.607-0.263-0.469-0.737
				C185.544,47.338,185.765,46.391,186.005,45.451z"/>
		</g>
		<g>
			<path fill-rule="evenodd" clip-rule="evenodd" fill="#F69321" d="M198.769,102.205c-17.01-4.334-27.424-22.036-22.461-39.342
				c4.619-16.108,21.352-26.161,38.213-21.87c17.023,4.333,27.547,22.018,22.51,39.448
				C232.356,96.625,215.497,106.561,198.769,102.205z"/>
			<path fill-rule="evenodd" clip-rule="evenodd" fill="#FEFEFE" d="M234.692,78.828c-3.938,15.364-19.682,24.701-34.943,20.894
				c-15.701-3.918-25.102-19.97-21.084-35.359c4.039-15.469,19.738-24.742,35.287-20.744
				C229.39,47.587,238.665,63.333,234.692,78.828z"/>
			<path fill-rule="evenodd" clip-rule="evenodd" fill="#F69321" d="M228.81,76.509c-2.447,11.316-13.398,19.389-25.553,17.508
				c-12.832-1.986-20.898-13.846-18.973-25.905c2.037-12.763,13.811-20.785,25.822-18.908
				C223.565,51.306,231.63,64.215,228.81,76.509z"/>
			<path fill-rule="evenodd" clip-rule="evenodd" fill="#FEFEFE" d="M216.343,72.658c0.471,0.389,0.91,0.707,1.299,1.08
				c2.012,1.941,2.465,4.453,1.453,7.096c-1.699,4.441-5.08,5.595-9.113,5.004c-0.779-0.114-1.561-0.248-2.318-0.455
				c-0.502-0.137-0.633,0.037-0.738,0.478c-0.357,1.483-0.768,2.954-1.121,4.439c-0.111,0.474-0.289,0.594-0.756,0.448
				c-0.703-0.222-1.418-0.414-2.143-0.549c-0.574-0.106-0.623-0.369-0.482-0.873c0.395-1.42,0.719-2.86,1.123-4.277
				c0.152-0.541,0.014-0.721-0.516-0.853c-1.729-0.433-1.723-0.454-2.16,1.246c-0.295,1.147-0.602,2.292-0.877,3.442
				c-0.096,0.398-0.264,0.508-0.662,0.392c-0.785-0.228-1.574-0.435-2.371-0.608c-0.43-0.094-0.463-0.299-0.363-0.672
				c0.402-1.5,0.76-3.012,1.176-4.508c0.129-0.468,0.029-0.641-0.445-0.755c-1.816-0.438-3.615-0.946-5.436-1.368
				c-0.605-0.141-0.695-0.381-0.508-0.92c0.275-0.793,0.516-1.602,0.734-2.415c0.098-0.362,0.252-0.463,0.613-0.36
				c0.709,0.202,1.432,0.354,2.139,0.56c0.732,0.214,1.234-0.05,1.553-0.702c0.137-0.281,0.242-0.582,0.322-0.885
				c1.262-4.895,2.516-9.788,3.773-14.683c0.326-1.271,0.012-1.8-1.264-2.126c-0.662-0.169-1.324-0.35-1.996-0.476
				c-0.531-0.101-0.705-0.316-0.527-0.86c0.246-0.749,0.461-1.513,0.619-2.284c0.113-0.54,0.357-0.59,0.83-0.462
				c1.881,0.503,3.775,0.959,5.654,1.47c0.498,0.136,0.688,0.034,0.807-0.472c0.334-1.435,0.738-2.854,1.078-4.288
				c0.109-0.462,0.277-0.603,0.754-0.454c0.727,0.228,1.469,0.417,2.215,0.571c0.492,0.102,0.557,0.322,0.434,0.772
				c-0.391,1.421-0.727,2.856-1.117,4.278c-0.121,0.446-0.055,0.644,0.43,0.777c1.813,0.5,1.807,0.52,2.271-1.292
				c0.262-1.02,0.564-2.031,0.773-3.062c0.123-0.604,0.375-0.699,0.92-0.522c0.674,0.221,1.367,0.391,2.064,0.531
				c0.469,0.094,0.59,0.271,0.455,0.75c-0.402,1.445-0.732,2.909-1.141,4.353c-0.145,0.514-0.037,0.702,0.471,0.902
				c1.844,0.727,3.552,1.674,4.942,3.147c2.889,3.061,1.242,7.734-2.097,9.118C216.858,72.429,216.626,72.536,216.343,72.658z"/>
			<path fill-rule="evenodd" clip-rule="evenodd" fill="#F69321" d="M203.267,76.111c0.273-1.07,0.553-2.138,0.82-3.209
				c0.078-0.313,0.172-0.554,0.572-0.439c1.967,0.563,4.016,0.857,5.873,1.777c0.234,0.116,0.469,0.243,0.678,0.396
				c0.992,0.723,1.84,1.559,1.611,2.925c-0.27,1.604-1.031,2.865-2.695,3.366c-1.029,0.309-2.08,0.289-3.113,0.052
				c-1.383-0.317-2.75-0.708-4.129-1.037c-0.428-0.103-0.557-0.261-0.43-0.702C202.749,78.205,202.999,77.154,203.267,76.111z"/>
			<path fill-rule="evenodd" clip-rule="evenodd" fill="#F69321" d="M206.005,65.451c0.248-0.967,0.498-1.933,0.744-2.899
				c0.068-0.263,0.109-0.522,0.5-0.414c1.59,0.442,3.234,0.703,4.699,1.529c1.83,1.033,2.338,2.443,1.535,4.285
				c-0.723,1.658-2.479,2.453-4.232,1.953c-1.16-0.33-2.33-0.634-3.51-0.896c-0.471-0.104-0.607-0.263-0.469-0.737
				C205.544,67.338,205.765,66.391,206.005,65.451z"/>
		</g>
		<g>
			<path fill-rule="evenodd" clip-rule="evenodd" fill="#F69321" d="M218.77,122.205c-17.011-4.334-27.425-22.036-22.462-39.342
				c4.619-16.108,21.352-26.161,38.213-21.87c17.021,4.333,27.547,22.018,22.51,39.448
				C252.354,116.626,235.497,126.562,218.77,122.205z"/>
			<path fill-rule="evenodd" clip-rule="evenodd" fill="#FEFEFE" d="M254.692,98.828c-3.939,15.364-19.682,24.701-34.942,20.895
				c-15.702-3.918-25.103-19.971-21.085-35.36c4.039-15.469,19.738-24.742,35.287-20.744
				C249.388,67.587,258.665,83.333,254.692,98.828z"/>
			<path fill-rule="evenodd" clip-rule="evenodd" fill="#F69321" d="M248.808,96.509c-2.445,11.316-13.396,19.388-25.551,17.508
				c-12.832-1.986-20.898-13.846-18.973-25.905c2.037-12.763,13.811-20.785,25.822-18.908
				C243.563,71.306,251.628,84.215,248.808,96.509z"/>
			<path fill-rule="evenodd" clip-rule="evenodd" fill="#FEFEFE" d="M236.343,92.658c0.471,0.389,0.91,0.707,1.299,1.08
				c2.012,1.941,2.465,4.453,1.453,7.096c-1.699,4.441-5.08,5.595-9.113,5.004c-0.779-0.114-1.561-0.248-2.317-0.455
				c-0.502-0.137-0.633,0.037-0.739,0.478c-0.356,1.483-0.768,2.954-1.12,4.439c-0.111,0.474-0.289,0.594-0.757,0.448
				c-0.702-0.222-1.418-0.414-2.142-0.549c-0.575-0.106-0.623-0.369-0.482-0.873c0.395-1.42,0.719-2.86,1.122-4.277
				c0.153-0.541,0.014-0.721-0.515-0.853c-1.729-0.433-1.724-0.454-2.16,1.246c-0.296,1.147-0.603,2.292-0.878,3.442
				c-0.096,0.398-0.264,0.508-0.662,0.392c-0.784-0.228-1.574-0.435-2.371-0.608c-0.43-0.094-0.463-0.299-0.363-0.672
				c0.402-1.5,0.76-3.012,1.176-4.508c0.13-0.468,0.03-0.641-0.445-0.755c-1.816-0.438-3.615-0.946-5.436-1.368
				c-0.605-0.141-0.695-0.381-0.508-0.92c0.275-0.793,0.516-1.602,0.734-2.415c0.098-0.362,0.252-0.463,0.613-0.36
				c0.709,0.202,1.432,0.354,2.139,0.56c0.732,0.214,1.234-0.05,1.553-0.702c0.137-0.281,0.242-0.582,0.322-0.885
				c1.262-4.895,2.517-9.788,3.773-14.683c0.326-1.271,0.013-1.8-1.264-2.126c-0.662-0.169-1.324-0.35-1.996-0.476
				c-0.531-0.101-0.705-0.316-0.527-0.86c0.246-0.749,0.461-1.513,0.619-2.284c0.113-0.54,0.357-0.59,0.831-0.462
				c1.881,0.503,3.775,0.959,5.654,1.47c0.498,0.136,0.688,0.034,0.806-0.472c0.335-1.435,0.738-2.854,1.079-4.288
				c0.109-0.462,0.277-0.603,0.753-0.454c0.727,0.228,1.469,0.417,2.215,0.571c0.492,0.102,0.557,0.322,0.434,0.772
				c-0.391,1.421-0.727,2.856-1.117,4.278c-0.121,0.446-0.055,0.644,0.43,0.777c1.813,0.5,1.807,0.52,2.271-1.292
				c0.262-1.02,0.564-2.031,0.773-3.062c0.123-0.604,0.375-0.699,0.92-0.522c0.674,0.221,1.367,0.391,2.064,0.531
				c0.469,0.094,0.59,0.271,0.455,0.75c-0.402,1.445-0.732,2.909-1.141,4.353c-0.145,0.514-0.037,0.702,0.471,0.902
				c1.844,0.727,3.551,1.674,4.941,3.147c2.889,3.061,1.242,7.734-2.096,9.118C236.858,92.429,236.626,92.536,236.343,92.658z"/>
			<path fill-rule="evenodd" clip-rule="evenodd" fill="#F69321" d="M223.268,96.111c0.273-1.07,0.553-2.138,0.82-3.209
				c0.077-0.313,0.171-0.554,0.572-0.439c1.967,0.563,4.015,0.857,5.872,1.777c0.234,0.116,0.469,0.243,0.678,0.396
				c0.992,0.723,1.84,1.559,1.611,2.925c-0.27,1.604-1.031,2.865-2.695,3.366c-1.029,0.309-2.08,0.289-3.113,0.052
				c-1.383-0.317-2.749-0.708-4.129-1.037c-0.428-0.103-0.556-0.261-0.43-0.702C222.75,98.205,223,97.154,223.268,96.111z"/>
			<path fill-rule="evenodd" clip-rule="evenodd" fill="#F69321" d="M226.006,85.451c0.248-0.967,0.497-1.933,0.743-2.899
				c0.068-0.263,0.109-0.522,0.5-0.414c1.59,0.442,3.234,0.703,4.699,1.529c1.83,1.033,2.338,2.443,1.535,4.285
				c-0.723,1.658-2.479,2.453-4.232,1.953c-1.16-0.33-2.33-0.634-3.509-0.896c-0.472-0.104-0.608-0.263-0.47-0.737
				C225.544,87.338,225.765,86.391,226.006,85.451z"/>
		</g>
	</g>
	<g>
		<g>
			<path fill-rule="evenodd" clip-rule="evenodd" fill="#F69321" d="M113.156,67.025c-17.01-4.334-27.424-22.036-22.462-39.342
				c4.619-16.108,21.352-26.161,38.213-21.87c17.023,4.333,27.547,22.018,22.51,39.448
				C146.742,61.446,129.883,71.381,113.156,67.025z"/>
			<path fill-rule="evenodd" clip-rule="evenodd" fill="#FEFEFE" d="M149.079,43.648c-3.938,15.364-19.682,24.701-34.943,20.894
				c-15.701-3.918-25.103-19.97-21.084-35.359C97.091,13.713,112.79,4.44,128.339,8.438
				C143.775,12.407,153.052,28.154,149.079,43.648z"/>
			<path fill-rule="evenodd" clip-rule="evenodd" fill="#F69321" d="M143.195,41.33c-2.446,11.316-13.397,19.389-25.552,17.508
				c-12.831-1.986-20.897-13.846-18.972-25.905c2.037-12.763,13.81-20.785,25.821-18.908
				C137.951,16.126,146.016,29.036,143.195,41.33z"/>
			<path fill-rule="evenodd" clip-rule="evenodd" fill="#FEFEFE" d="M130.73,37.478c0.47,0.389,0.91,0.707,1.298,1.08
				c2.012,1.941,2.465,4.453,1.453,7.096c-1.699,4.441-5.08,5.595-9.113,5.004c-0.778-0.114-1.56-0.248-2.317-0.455
				c-0.502-0.137-0.633,0.037-0.739,0.478c-0.356,1.483-0.768,2.954-1.12,4.439c-0.111,0.474-0.289,0.594-0.757,0.448
				c-0.702-0.222-1.418-0.414-2.142-0.549c-0.575-0.106-0.623-0.369-0.482-0.873c0.395-1.42,0.719-2.86,1.122-4.277
				c0.153-0.541,0.014-0.721-0.515-0.853c-1.729-0.433-1.724-0.454-2.16,1.246c-0.296,1.147-0.603,2.292-0.878,3.442
				c-0.096,0.398-0.264,0.508-0.662,0.392c-0.784-0.228-1.574-0.435-2.37-0.608c-0.43-0.094-0.464-0.299-0.363-0.672
				c0.401-1.5,0.76-3.012,1.175-4.508c0.13-0.468,0.03-0.641-0.444-0.755c-1.816-0.438-3.615-0.946-5.437-1.368
				c-0.605-0.141-0.695-0.381-0.508-0.92c0.276-0.793,0.516-1.602,0.734-2.415c0.099-0.362,0.252-0.463,0.614-0.36
				c0.708,0.202,1.431,0.354,2.138,0.56c0.733,0.214,1.234-0.05,1.553-0.702c0.137-0.281,0.243-0.582,0.322-0.885
				c1.262-4.895,2.517-9.788,3.773-14.683c0.326-1.271,0.013-1.8-1.264-2.126c-0.662-0.169-1.324-0.35-1.995-0.476
				c-0.532-0.101-0.705-0.316-0.527-0.86c0.246-0.749,0.461-1.513,0.619-2.284c0.112-0.54,0.356-0.59,0.83-0.462
				c1.881,0.503,3.775,0.959,5.654,1.47c0.498,0.136,0.688,0.034,0.806-0.472c0.335-1.435,0.738-2.854,1.079-4.288
				c0.109-0.462,0.277-0.603,0.753-0.454c0.727,0.228,1.469,0.417,2.215,0.571c0.492,0.102,0.557,0.322,0.434,0.772
				c-0.39,1.421-0.727,2.856-1.116,4.278c-0.122,0.446-0.056,0.644,0.43,0.777c1.813,0.5,1.807,0.52,2.271-1.292
				c0.262-1.02,0.563-2.031,0.772-3.062c0.123-0.604,0.375-0.699,0.921-0.522c0.674,0.221,1.367,0.391,2.063,0.531
				c0.47,0.094,0.591,0.271,0.456,0.75c-0.402,1.445-0.733,2.909-1.142,4.353c-0.145,0.514-0.037,0.702,0.472,0.902
				c1.844,0.727,3.551,1.674,4.941,3.147c2.889,3.061,1.242,7.734-2.096,9.118C131.245,37.25,131.013,37.356,130.73,37.478z"/>
			<path fill-rule="evenodd" clip-rule="evenodd" fill="#F69321" d="M117.654,40.931c0.273-1.07,0.553-2.138,0.82-3.209
				c0.077-0.313,0.171-0.554,0.572-0.439c1.967,0.563,4.015,0.857,5.873,1.777c0.233,0.116,0.468,0.243,0.678,0.396
				c0.992,0.723,1.84,1.559,1.61,2.925c-0.27,1.604-1.03,2.865-2.695,3.366c-1.028,0.309-2.08,0.289-3.113,0.052
				c-1.383-0.317-2.749-0.708-4.129-1.037c-0.428-0.103-0.556-0.261-0.43-0.702C117.136,43.025,117.386,41.974,117.654,40.931z"/>
			<path fill-rule="evenodd" clip-rule="evenodd" fill="#F69321" d="M120.392,30.271c0.248-0.967,0.497-1.933,0.743-2.899
				c0.068-0.263,0.109-0.522,0.5-0.414c1.59,0.442,3.235,0.703,4.7,1.529c1.829,1.033,2.338,2.443,1.535,4.285
				c-0.723,1.658-2.479,2.453-4.232,1.953c-1.16-0.33-2.331-0.634-3.51-0.896c-0.472-0.104-0.608-0.263-0.47-0.737
				C119.93,32.159,120.151,31.211,120.392,30.271z"/>
		</g>
		<g>
			<path fill-rule="evenodd" clip-rule="evenodd" fill="#F69321" d="M133.156,87.025c-17.01-4.334-27.424-22.036-22.462-39.342
				c4.619-16.108,21.352-26.161,38.212-21.87c17.022,4.333,27.548,22.018,22.511,39.448
				C166.741,81.446,149.883,91.382,133.156,87.025z"/>
			<path fill-rule="evenodd" clip-rule="evenodd" fill="#FEFEFE" d="M169.079,63.648c-3.939,15.364-19.683,24.701-34.943,20.895
				c-15.701-3.918-25.103-19.971-21.084-35.36c4.039-15.469,19.737-24.742,35.287-20.744
				C163.774,32.407,173.052,48.154,169.079,63.648z"/>
			<path fill-rule="evenodd" clip-rule="evenodd" fill="#F69321" d="M163.194,61.33c-2.446,11.316-13.396,19.388-25.551,17.508
				c-12.831-1.986-20.897-13.846-18.972-25.905c2.037-12.763,13.81-20.785,25.821-18.908
				C157.95,36.126,166.015,49.036,163.194,61.33z"/>
			<path fill-rule="evenodd" clip-rule="evenodd" fill="#FEFEFE" d="M150.729,57.478c0.47,0.389,0.91,0.707,1.298,1.08
				c2.012,1.941,2.465,4.453,1.453,7.096c-1.699,4.441-5.08,5.595-9.113,5.004c-0.778-0.114-1.56-0.248-2.317-0.455
				c-0.502-0.137-0.633,0.037-0.739,0.478c-0.356,1.483-0.768,2.954-1.12,4.439c-0.111,0.474-0.289,0.594-0.757,0.448
				c-0.702-0.222-1.418-0.414-2.142-0.549c-0.575-0.106-0.623-0.369-0.482-0.873c0.395-1.42,0.719-2.86,1.122-4.277
				c0.153-0.541,0.014-0.721-0.515-0.853c-1.729-0.433-1.724-0.454-2.16,1.246c-0.296,1.147-0.603,2.292-0.878,3.442
				c-0.096,0.398-0.264,0.508-0.662,0.392c-0.784-0.228-1.574-0.435-2.37-0.608c-0.43-0.094-0.464-0.299-0.363-0.672
				c0.401-1.5,0.76-3.012,1.175-4.508c0.13-0.468,0.03-0.641-0.444-0.755c-1.816-0.438-3.615-0.946-5.437-1.368
				c-0.605-0.141-0.695-0.381-0.508-0.92c0.276-0.793,0.516-1.602,0.734-2.415c0.099-0.362,0.252-0.463,0.614-0.36
				c0.708,0.202,1.431,0.354,2.138,0.56c0.733,0.214,1.234-0.05,1.553-0.702c0.137-0.281,0.243-0.582,0.322-0.885
				c1.262-4.895,2.517-9.788,3.773-14.683c0.326-1.271,0.013-1.8-1.264-2.126c-0.662-0.169-1.324-0.35-1.995-0.476
				c-0.532-0.101-0.705-0.316-0.527-0.86c0.246-0.749,0.461-1.513,0.619-2.284c0.112-0.54,0.356-0.59,0.83-0.462
				c1.881,0.503,3.775,0.959,5.654,1.47c0.498,0.136,0.688,0.034,0.806-0.472c0.335-1.435,0.738-2.854,1.079-4.288
				c0.109-0.462,0.277-0.603,0.753-0.454c0.727,0.228,1.468,0.417,2.214,0.571c0.492,0.102,0.557,0.322,0.434,0.772
				c-0.39,1.421-0.727,2.856-1.116,4.278c-0.122,0.446-0.056,0.644,0.43,0.777c1.813,0.5,1.807,0.52,2.271-1.292
				c0.262-1.02,0.563-2.031,0.772-3.062c0.123-0.604,0.375-0.699,0.921-0.522c0.674,0.221,1.367,0.391,2.063,0.531
				c0.47,0.094,0.591,0.271,0.456,0.75c-0.402,1.445-0.733,2.909-1.142,4.353c-0.145,0.514-0.037,0.702,0.472,0.902
				c1.844,0.727,3.551,1.674,4.941,3.147c2.889,3.061,1.242,7.734-2.096,9.118C151.244,57.25,151.013,57.356,150.729,57.478z"/>
			<path fill-rule="evenodd" clip-rule="evenodd" fill="#F69321" d="M137.654,60.931c0.273-1.07,0.553-2.138,0.82-3.209
				c0.077-0.313,0.171-0.554,0.572-0.439c1.967,0.563,4.014,0.857,5.873,1.777c0.233,0.116,0.468,0.243,0.678,0.396
				c0.992,0.723,1.84,1.559,1.61,2.925c-0.27,1.604-1.03,2.865-2.695,3.366c-1.028,0.309-2.08,0.289-3.113,0.052
				c-1.383-0.317-2.749-0.708-4.129-1.037c-0.428-0.103-0.556-0.261-0.43-0.702C137.136,63.025,137.386,61.974,137.654,60.931z"/>
			<path fill-rule="evenodd" clip-rule="evenodd" fill="#F69321" d="M140.392,50.271c0.248-0.967,0.497-1.933,0.743-2.899
				c0.068-0.263,0.109-0.522,0.5-0.414c1.589,0.442,3.235,0.703,4.7,1.529c1.829,1.033,2.338,2.443,1.535,4.285
				c-0.723,1.658-2.479,2.453-4.232,1.953c-1.16-0.33-2.331-0.634-3.509-0.896c-0.472-0.104-0.608-0.263-0.47-0.737
				C139.93,52.159,140.151,51.211,140.392,50.271z"/>
		</g>
		<g>
			<path fill-rule="evenodd" clip-rule="evenodd" fill="#F69321" d="M153.156,107.025c-17.01-4.334-27.424-22.036-22.462-39.342
				c4.619-16.108,21.352-26.161,38.213-21.87c17.023,4.333,27.547,22.018,22.51,39.448
				C186.743,101.446,169.884,111.381,153.156,107.025z"/>
			<path fill-rule="evenodd" clip-rule="evenodd" fill="#FEFEFE" d="M189.079,83.648c-3.938,15.364-19.682,24.701-34.943,20.894
				c-15.701-3.918-25.103-19.97-21.084-35.359c4.039-15.469,19.737-24.742,35.287-20.744
				C183.776,52.407,193.052,68.154,189.079,83.648z"/>
			<path fill-rule="evenodd" clip-rule="evenodd" fill="#F69321" d="M183.196,81.33c-2.447,11.316-13.398,19.389-25.553,17.508
				c-12.831-1.986-20.897-13.846-18.972-25.905c2.037-12.763,13.81-20.785,25.821-18.908
				C177.952,56.126,186.017,69.036,183.196,81.33z"/>
			<path fill-rule="evenodd" clip-rule="evenodd" fill="#FEFEFE" d="M170.729,77.478c0.471,0.389,0.91,0.707,1.299,1.08
				c2.012,1.941,2.465,4.453,1.453,7.096c-1.699,4.441-5.081,5.595-9.114,5.004c-0.778-0.114-1.56-0.248-2.317-0.455
				c-0.502-0.137-0.633,0.037-0.739,0.478c-0.356,1.483-0.768,2.954-1.12,4.439c-0.111,0.474-0.289,0.594-0.757,0.448
				c-0.702-0.222-1.418-0.414-2.142-0.549c-0.575-0.106-0.623-0.369-0.482-0.873c0.395-1.42,0.719-2.86,1.122-4.277
				c0.153-0.541,0.014-0.721-0.515-0.853c-1.729-0.433-1.724-0.454-2.16,1.246c-0.296,1.147-0.603,2.292-0.878,3.442
				c-0.096,0.398-0.264,0.508-0.662,0.392c-0.784-0.228-1.574-0.435-2.37-0.608c-0.43-0.094-0.464-0.299-0.363-0.672
				c0.401-1.5,0.76-3.012,1.175-4.508c0.13-0.468,0.03-0.641-0.444-0.755c-1.816-0.438-3.615-0.946-5.437-1.368
				c-0.605-0.141-0.695-0.381-0.508-0.92c0.276-0.793,0.516-1.602,0.734-2.415c0.099-0.362,0.252-0.463,0.614-0.36
				c0.708,0.202,1.431,0.354,2.138,0.56c0.733,0.214,1.234-0.05,1.553-0.702c0.137-0.281,0.243-0.582,0.322-0.885
				c1.262-4.895,2.517-9.788,3.773-14.683c0.326-1.271,0.013-1.8-1.264-2.126c-0.662-0.169-1.324-0.35-1.995-0.476
				c-0.532-0.101-0.705-0.316-0.527-0.86c0.246-0.749,0.461-1.513,0.619-2.284c0.112-0.54,0.356-0.59,0.83-0.462
				c1.881,0.503,3.775,0.959,5.654,1.47c0.498,0.136,0.688,0.034,0.806-0.472c0.335-1.435,0.738-2.854,1.079-4.288
				c0.109-0.462,0.277-0.603,0.753-0.454c0.727,0.228,1.469,0.417,2.215,0.571c0.492,0.102,0.557,0.322,0.434,0.772
				c-0.39,1.421-0.727,2.856-1.116,4.278c-0.122,0.446-0.056,0.644,0.43,0.777c1.813,0.5,1.807,0.52,2.271-1.292
				c0.262-1.02,0.563-2.031,0.772-3.062c0.123-0.604,0.375-0.699,0.921-0.522c0.674,0.221,1.367,0.391,2.064,0.531
				c0.469,0.094,0.59,0.271,0.455,0.75c-0.402,1.445-0.733,2.909-1.141,4.353c-0.145,0.514-0.037,0.702,0.471,0.902
				c1.844,0.727,3.552,1.674,4.942,3.147c2.889,3.061,1.242,7.734-2.097,9.118C171.245,77.25,171.013,77.356,170.729,77.478z"/>
			<path fill-rule="evenodd" clip-rule="evenodd" fill="#F69321" d="M157.654,80.931c0.273-1.07,0.553-2.138,0.82-3.209
				c0.077-0.313,0.171-0.554,0.572-0.439c1.967,0.563,4.015,0.857,5.873,1.777c0.233,0.116,0.468,0.243,0.678,0.396
				c0.992,0.723,1.84,1.559,1.61,2.925c-0.27,1.604-1.03,2.865-2.695,3.366c-1.028,0.309-2.08,0.289-3.113,0.052
				c-1.383-0.317-2.749-0.708-4.129-1.037c-0.428-0.103-0.556-0.261-0.43-0.702C157.136,83.025,157.386,81.974,157.654,80.931z"/>
			<path fill-rule="evenodd" clip-rule="evenodd" fill="#F69321" d="M160.392,70.271c0.248-0.967,0.497-1.933,0.743-2.899
				c0.068-0.263,0.109-0.522,0.5-0.414c1.59,0.442,3.235,0.703,4.7,1.529c1.829,1.033,2.337,2.443,1.535,4.285
				c-0.723,1.658-2.479,2.453-4.232,1.953c-1.16-0.33-2.331-0.634-3.51-0.896c-0.472-0.104-0.608-0.263-0.47-0.737
				C159.93,72.159,160.151,71.211,160.392,70.271z"/>
		</g>
		<g>
			<path fill-rule="evenodd" clip-rule="evenodd" fill="#F69321" d="M173.156,127.025c-17.01-4.334-27.424-22.036-22.462-39.342
				c4.619-16.108,21.352-26.161,38.213-21.87c17.021,4.333,27.547,22.018,22.51,39.448
				C206.741,121.446,189.884,131.382,173.156,127.025z"/>
			<path fill-rule="evenodd" clip-rule="evenodd" fill="#FEFEFE" d="M209.079,103.648c-3.939,15.364-19.682,24.701-34.942,20.895
				c-15.702-3.918-25.103-19.971-21.084-35.36c4.039-15.469,19.738-24.742,35.287-20.744
				C203.774,72.407,213.052,88.154,209.079,103.648z"/>
			<path fill-rule="evenodd" clip-rule="evenodd" fill="#F69321" d="M203.194,101.33c-2.445,11.316-13.396,19.388-25.551,17.508
				c-12.832-1.986-20.898-13.846-18.972-25.905c2.037-12.763,13.81-20.785,25.822-18.908
				C197.95,76.126,206.015,89.036,203.194,101.33z"/>
			<path fill-rule="evenodd" clip-rule="evenodd" fill="#FEFEFE" d="M190.729,97.478c0.471,0.389,0.91,0.707,1.299,1.08
				c2.012,1.941,2.465,4.453,1.453,7.096c-1.699,4.441-5.08,5.595-9.113,5.004c-0.779-0.114-1.561-0.248-2.317-0.455
				c-0.502-0.137-0.633,0.037-0.739,0.478c-0.356,1.483-0.768,2.954-1.12,4.439c-0.111,0.474-0.289,0.594-0.757,0.448
				c-0.702-0.222-1.418-0.414-2.142-0.549c-0.575-0.106-0.623-0.369-0.482-0.873c0.395-1.42,0.719-2.86,1.122-4.277
				c0.153-0.541,0.014-0.721-0.515-0.853c-1.729-0.433-1.724-0.454-2.16,1.246c-0.296,1.147-0.603,2.292-0.878,3.442
				c-0.096,0.398-0.264,0.508-0.662,0.392c-0.784-0.228-1.574-0.435-2.371-0.608c-0.43-0.094-0.463-0.299-0.363-0.672
				c0.402-1.5,0.76-3.012,1.176-4.508c0.13-0.468,0.03-0.641-0.445-0.755c-1.816-0.438-3.615-0.946-5.436-1.368
				c-0.605-0.141-0.695-0.381-0.508-0.92c0.276-0.793,0.516-1.602,0.734-2.415c0.099-0.362,0.252-0.463,0.614-0.36
				c0.708,0.202,1.431,0.354,2.138,0.56c0.732,0.214,1.234-0.05,1.553-0.702c0.137-0.281,0.242-0.582,0.322-0.885
				c1.262-4.895,2.517-9.788,3.773-14.683c0.326-1.271,0.013-1.8-1.264-2.126c-0.662-0.169-1.324-0.35-1.996-0.476
				c-0.531-0.101-0.705-0.316-0.527-0.86c0.246-0.749,0.461-1.513,0.619-2.284c0.113-0.54,0.357-0.59,0.831-0.462
				c1.881,0.503,3.775,0.959,5.654,1.47c0.498,0.136,0.688,0.034,0.806-0.472c0.335-1.435,0.738-2.854,1.079-4.288
				c0.109-0.462,0.277-0.603,0.753-0.454c0.727,0.228,1.469,0.417,2.215,0.571c0.492,0.102,0.557,0.322,0.434,0.772
				c-0.391,1.421-0.727,2.856-1.117,4.278c-0.121,0.446-0.055,0.644,0.43,0.777c1.813,0.5,1.807,0.52,2.271-1.292
				c0.262-1.02,0.564-2.031,0.773-3.062c0.123-0.604,0.375-0.699,0.92-0.522c0.674,0.221,1.367,0.391,2.064,0.531
				c0.469,0.094,0.59,0.271,0.455,0.75c-0.402,1.445-0.732,2.909-1.141,4.353c-0.145,0.514-0.037,0.702,0.471,0.902
				c1.844,0.727,3.551,1.674,4.941,3.147c2.889,3.061,1.242,7.734-2.096,9.118C191.245,97.25,191.013,97.356,190.729,97.478z"/>
			<path fill-rule="evenodd" clip-rule="evenodd" fill="#F69321" d="M177.654,100.931c0.273-1.07,0.553-2.138,0.82-3.209
				c0.077-0.313,0.171-0.554,0.572-0.439c1.967,0.563,4.015,0.857,5.872,1.777c0.234,0.116,0.469,0.243,0.678,0.396
				c0.992,0.723,1.84,1.559,1.611,2.925c-0.27,1.604-1.031,2.865-2.695,3.366c-1.029,0.309-2.08,0.289-3.113,0.052
				c-1.383-0.317-2.749-0.708-4.129-1.037c-0.428-0.103-0.556-0.261-0.43-0.702C177.137,103.025,177.387,101.974,177.654,100.931z"
				/>
			<path fill-rule="evenodd" clip-rule="evenodd" fill="#F69321" d="M180.393,90.271c0.248-0.967,0.497-1.933,0.743-2.899
				c0.068-0.263,0.109-0.522,0.5-0.414c1.59,0.442,3.234,0.703,4.699,1.529c1.83,1.033,2.338,2.443,1.535,4.285
				c-0.723,1.658-2.479,2.453-4.232,1.953c-1.16-0.33-2.33-0.634-3.509-0.896c-0.472-0.104-0.608-0.263-0.47-0.737
				C179.931,92.159,180.151,91.211,180.393,90.271z"/>
		</g>
	</g>
	<g>
		<g>
			<path fill-rule="evenodd" clip-rule="evenodd" fill="#F69321" d="M65.234,66.574C48.224,62.24,37.81,44.538,42.772,27.232
				c4.619-16.108,21.352-26.161,38.213-21.87c17.023,4.333,27.547,22.018,22.51,39.448C98.82,60.995,81.961,70.93,65.234,66.574z"/>
			<path fill-rule="evenodd" clip-rule="evenodd" fill="#FEFEFE" d="M101.157,43.197C97.219,58.561,81.475,67.898,66.214,64.09
				c-15.701-3.918-25.103-19.97-21.084-35.359C49.169,13.262,64.868,3.989,80.417,7.987C95.854,11.956,105.13,27.703,101.157,43.197
				z"/>
			<path fill-rule="evenodd" clip-rule="evenodd" fill="#F69321" d="M95.273,40.878c-2.446,11.316-13.397,19.389-25.552,17.508
				C56.89,56.4,48.824,44.541,50.75,32.481c2.037-12.763,13.81-20.785,25.821-18.908C90.029,15.675,98.094,28.584,95.273,40.878z"/>
			<path fill-rule="evenodd" clip-rule="evenodd" fill="#FEFEFE" d="M82.808,37.027c0.47,0.389,0.91,0.707,1.298,1.08
				c2.012,1.941,2.465,4.453,1.453,7.096c-1.699,4.441-5.081,5.595-9.114,5.004c-0.778-0.114-1.56-0.248-2.317-0.455
				c-0.502-0.137-0.633,0.037-0.739,0.478c-0.356,1.483-0.768,2.954-1.12,4.439c-0.111,0.474-0.289,0.594-0.757,0.448
				c-0.702-0.222-1.418-0.414-2.142-0.549c-0.575-0.106-0.623-0.369-0.482-0.873c0.395-1.42,0.719-2.86,1.122-4.277
				c0.153-0.541,0.014-0.721-0.515-0.853c-1.729-0.433-1.724-0.454-2.16,1.246c-0.296,1.147-0.603,2.292-0.878,3.442
				c-0.096,0.398-0.264,0.508-0.662,0.392c-0.784-0.228-1.574-0.435-2.37-0.608c-0.43-0.094-0.464-0.299-0.363-0.672
				c0.401-1.5,0.76-3.012,1.175-4.508c0.13-0.468,0.03-0.641-0.444-0.755c-1.816-0.438-3.615-0.946-5.437-1.368
				c-0.605-0.141-0.695-0.381-0.508-0.92c0.276-0.793,0.516-1.602,0.734-2.415c0.099-0.362,0.252-0.463,0.614-0.36
				c0.708,0.202,1.431,0.354,2.138,0.56c0.733,0.214,1.234-0.05,1.553-0.702c0.137-0.281,0.243-0.582,0.322-0.885
				c1.262-4.895,2.517-9.788,3.773-14.683c0.326-1.271,0.013-1.8-1.264-2.126c-0.662-0.169-1.324-0.35-1.995-0.476
				c-0.532-0.101-0.705-0.316-0.527-0.86c0.246-0.749,0.461-1.513,0.619-2.284c0.112-0.54,0.356-0.59,0.83-0.462
				c1.881,0.503,3.775,0.959,5.654,1.47c0.498,0.136,0.688,0.034,0.806-0.472c0.335-1.435,0.738-2.854,1.079-4.288
				c0.109-0.462,0.277-0.603,0.753-0.454c0.727,0.228,1.469,0.417,2.215,0.571c0.492,0.102,0.557,0.322,0.434,0.772
				c-0.39,1.421-0.727,2.856-1.116,4.278c-0.122,0.446-0.056,0.644,0.43,0.777c1.813,0.5,1.807,0.52,2.271-1.292
				c0.262-1.02,0.563-2.031,0.772-3.062c0.123-0.604,0.375-0.699,0.921-0.522c0.674,0.221,1.367,0.391,2.063,0.531
				c0.47,0.094,0.591,0.271,0.456,0.75c-0.402,1.445-0.733,2.909-1.142,4.353c-0.145,0.514-0.037,0.702,0.472,0.902
				c1.844,0.727,3.55,1.674,4.941,3.147c2.89,3.061,1.242,7.734-2.095,9.118C83.323,36.798,83.091,36.905,82.808,37.027z"/>
			<path fill-rule="evenodd" clip-rule="evenodd" fill="#F69321" d="M69.732,40.48c0.273-1.07,0.553-2.138,0.82-3.209
				c0.077-0.313,0.171-0.554,0.572-0.439c1.967,0.563,4.015,0.857,5.873,1.777c0.233,0.116,0.468,0.243,0.678,0.396
				c0.992,0.723,1.84,1.559,1.61,2.925c-0.27,1.604-1.03,2.865-2.695,3.366c-1.028,0.309-2.08,0.289-3.113,0.052
				c-1.383-0.317-2.749-0.708-4.129-1.037c-0.428-0.103-0.556-0.261-0.43-0.702C69.214,42.574,69.464,41.523,69.732,40.48z"/>
			<path fill-rule="evenodd" clip-rule="evenodd" fill="#F69321" d="M72.47,29.82c0.248-0.967,0.497-1.933,0.743-2.899
				c0.068-0.263,0.109-0.522,0.5-0.414c1.59,0.442,3.235,0.703,4.7,1.529c1.829,1.033,2.338,2.443,1.535,4.285
				c-0.723,1.658-2.479,2.453-4.232,1.953c-1.16-0.33-2.331-0.634-3.51-0.896c-0.472-0.104-0.608-0.263-0.47-0.737
				C72.008,31.708,72.229,30.76,72.47,29.82z"/>
		</g>
		<g>
			<path fill-rule="evenodd" clip-rule="evenodd" fill="#F69321" d="M85.233,86.574C68.224,82.24,57.81,64.538,62.772,47.232
				c4.619-16.108,21.352-26.161,38.212-21.87c17.022,4.333,27.548,22.018,22.511,39.448
				C118.819,80.995,101.961,90.931,85.233,86.574z"/>
			<path fill-rule="evenodd" clip-rule="evenodd" fill="#FEFEFE" d="M121.157,63.197c-3.939,15.364-19.683,24.701-34.943,20.895
				c-15.701-3.918-25.102-19.971-21.083-35.36c4.039-15.469,19.738-24.742,35.287-20.744
				C115.853,31.956,125.13,47.703,121.157,63.197z"/>
			<path fill-rule="evenodd" clip-rule="evenodd" fill="#F69321" d="M115.272,60.878c-2.446,11.316-13.396,19.388-25.552,17.508
				C76.89,76.4,68.824,64.541,70.75,52.481c2.037-12.763,13.81-20.785,25.821-18.908C110.028,35.675,118.093,48.584,115.272,60.878z
				"/>
			<path fill-rule="evenodd" clip-rule="evenodd" fill="#FEFEFE" d="M102.808,57.027c0.47,0.389,0.91,0.707,1.298,1.08
				c2.012,1.941,2.465,4.453,1.453,7.096c-1.699,4.441-5.08,5.595-9.113,5.004c-0.778-0.114-1.56-0.248-2.316-0.455
				c-0.502-0.137-0.633,0.037-0.74,0.478c-0.355,1.483-0.768,2.954-1.119,4.439c-0.111,0.474-0.289,0.594-0.758,0.448
				c-0.701-0.222-1.418-0.414-2.141-0.549c-0.576-0.106-0.623-0.369-0.482-0.873c0.395-1.42,0.719-2.86,1.121-4.277
				c0.154-0.541,0.014-0.721-0.514-0.853c-1.73-0.433-1.725-0.454-2.16,1.246c-0.297,1.147-0.603,2.292-0.878,3.442
				c-0.096,0.398-0.264,0.508-0.662,0.392c-0.785-0.228-1.574-0.435-2.371-0.608c-0.43-0.094-0.464-0.299-0.363-0.672
				c0.401-1.5,0.759-3.012,1.175-4.508c0.129-0.468,0.029-0.641-0.445-0.755c-1.816-0.438-3.615-0.946-5.437-1.368
				c-0.605-0.141-0.695-0.381-0.508-0.92c0.276-0.793,0.516-1.602,0.734-2.415c0.099-0.362,0.252-0.463,0.614-0.36
				c0.708,0.202,1.431,0.354,2.138,0.56c0.733,0.214,1.234-0.05,1.553-0.702c0.137-0.281,0.243-0.582,0.322-0.885
				c1.262-4.895,2.516-9.788,3.773-14.683c0.326-1.271,0.014-1.8-1.263-2.126c-0.662-0.169-1.324-0.35-1.996-0.476
				c-0.532-0.101-0.705-0.316-0.527-0.86c0.246-0.749,0.461-1.513,0.619-2.284c0.113-0.54,0.357-0.59,0.83-0.462
				c1.881,0.503,3.776,0.959,5.655,1.47c0.498,0.136,0.688,0.034,0.805-0.472c0.336-1.435,0.738-2.854,1.08-4.288
				c0.109-0.462,0.277-0.603,0.752-0.454c0.727,0.228,1.469,0.417,2.215,0.571c0.492,0.102,0.557,0.322,0.434,0.772
				c-0.39,1.421-0.727,2.856-1.116,4.278c-0.122,0.446-0.056,0.644,0.43,0.777c1.813,0.5,1.807,0.52,2.271-1.292
				c0.262-1.02,0.563-2.031,0.772-3.062c0.123-0.604,0.375-0.699,0.921-0.522c0.674,0.221,1.367,0.391,2.063,0.531
				c0.47,0.094,0.591,0.271,0.456,0.75c-0.402,1.445-0.733,2.909-1.142,4.353c-0.145,0.514-0.037,0.702,0.472,0.902
				c1.844,0.727,3.551,1.674,4.941,3.147c2.889,3.061,1.242,7.734-2.096,9.118C103.322,56.798,103.091,56.905,102.808,57.027z"/>
			<path fill-rule="evenodd" clip-rule="evenodd" fill="#F69321" d="M89.732,60.48c0.273-1.07,0.553-2.138,0.82-3.209
				c0.076-0.313,0.17-0.554,0.572-0.439c1.967,0.563,4.014,0.857,5.872,1.777c0.233,0.116,0.468,0.243,0.678,0.396
				c0.992,0.723,1.84,1.559,1.61,2.925c-0.27,1.604-1.03,2.865-2.695,3.366c-1.028,0.309-2.08,0.289-3.113,0.052
				c-1.383-0.317-2.748-0.708-4.129-1.037c-0.428-0.103-0.555-0.261-0.43-0.702C89.215,62.574,89.465,61.523,89.732,60.48z"/>
			<path fill-rule="evenodd" clip-rule="evenodd" fill="#F69321" d="M92.471,49.82c0.248-0.967,0.496-1.933,0.742-2.899
				c0.068-0.263,0.109-0.522,0.5-0.414c1.59,0.442,3.235,0.703,4.7,1.529c1.829,1.033,2.338,2.443,1.535,4.285
				c-0.723,1.658-2.479,2.453-4.232,1.953c-1.16-0.33-2.331-0.634-3.509-0.896c-0.473-0.104-0.609-0.263-0.471-0.737
				C92.008,51.708,92.229,50.76,92.471,49.82z"/>
		</g>
		<g>
			<path fill-rule="evenodd" clip-rule="evenodd" fill="#F69321" d="M105.234,106.574c-17.01-4.334-27.424-22.036-22.462-39.342
				c4.619-16.108,21.351-26.161,38.212-21.87c17.024,4.333,27.547,22.018,22.51,39.448
				C138.821,100.995,121.961,110.93,105.234,106.574z"/>
			<path fill-rule="evenodd" clip-rule="evenodd" fill="#FEFEFE" d="M141.157,83.197c-3.938,15.364-19.683,24.701-34.942,20.894
				c-15.701-3.918-25.103-19.97-21.085-35.359c4.04-15.469,19.737-24.742,35.288-20.744
				C135.854,51.956,145.129,67.703,141.157,83.197z"/>
			<path fill-rule="evenodd" clip-rule="evenodd" fill="#F69321" d="M135.274,80.878c-2.447,11.316-13.397,19.389-25.554,17.508
				C96.891,96.4,88.824,84.541,90.75,72.481c2.037-12.763,13.809-20.785,25.82-18.908C130.03,55.675,138.095,68.584,135.274,80.878z
				"/>
			<path fill-rule="evenodd" clip-rule="evenodd" fill="#FEFEFE" d="M122.809,77.027c0.469,0.389,0.91,0.707,1.297,1.08
				c2.013,1.941,2.466,4.453,1.454,7.096c-1.7,4.441-5.081,5.595-9.114,5.004c-0.777-0.114-1.559-0.248-2.316-0.455
				c-0.502-0.137-0.633,0.037-0.74,0.478c-0.355,1.483-0.768,2.954-1.119,4.439c-0.111,0.474-0.289,0.594-0.758,0.448
				c-0.701-0.222-1.418-0.414-2.141-0.549c-0.576-0.106-0.623-0.369-0.482-0.873c0.395-1.42,0.719-2.86,1.121-4.277
				c0.154-0.541,0.014-0.721-0.514-0.853c-1.73-0.433-1.725-0.454-2.16,1.246c-0.297,1.147-0.604,2.292-0.879,3.442
				c-0.096,0.398-0.264,0.508-0.662,0.392c-0.783-0.228-1.574-0.435-2.369-0.608c-0.43-0.094-0.465-0.299-0.363-0.672
				c0.4-1.5,0.76-3.012,1.174-4.508c0.131-0.468,0.031-0.641-0.443-0.755c-1.816-0.438-3.615-0.946-5.438-1.368
				c-0.605-0.141-0.695-0.381-0.508-0.92c0.277-0.793,0.516-1.602,0.734-2.415c0.1-0.362,0.252-0.463,0.615-0.36
				c0.707,0.202,1.43,0.354,2.137,0.56c0.734,0.214,1.234-0.05,1.553-0.702c0.137-0.281,0.244-0.582,0.322-0.885
				c1.262-4.895,2.518-9.788,3.773-14.683c0.326-1.271,0.014-1.8-1.264-2.126c-0.662-0.169-1.324-0.35-1.994-0.476
				c-0.533-0.101-0.705-0.316-0.527-0.86c0.246-0.749,0.461-1.513,0.619-2.284c0.111-0.54,0.355-0.59,0.83-0.462
				c1.881,0.503,3.775,0.959,5.654,1.47c0.498,0.136,0.688,0.034,0.805-0.472c0.336-1.435,0.738-2.854,1.08-4.288
				c0.109-0.462,0.277-0.603,0.752-0.454c0.727,0.228,1.469,0.417,2.215,0.571c0.492,0.102,0.557,0.322,0.434,0.772
				c-0.389,1.421-0.727,2.856-1.115,4.278c-0.123,0.446-0.057,0.644,0.43,0.777c1.813,0.5,1.807,0.52,2.271-1.292
				c0.262-1.02,0.563-2.031,0.771-3.062c0.123-0.604,0.375-0.699,0.922-0.522c0.674,0.221,1.367,0.391,2.063,0.531
				c0.471,0.094,0.592,0.271,0.457,0.75c-0.402,1.445-0.734,2.909-1.143,4.353c-0.145,0.514-0.037,0.702,0.473,0.902
				c1.844,0.727,3.551,1.674,4.941,3.147c2.889,3.061,1.242,7.734-2.096,9.118C123.322,76.798,123.092,76.905,122.809,77.027z"/>
			<path fill-rule="evenodd" clip-rule="evenodd" fill="#F69321" d="M109.732,80.48c0.273-1.07,0.553-2.138,0.82-3.209
				c0.076-0.313,0.17-0.554,0.572-0.439c1.967,0.563,4.014,0.857,5.873,1.777c0.232,0.116,0.467,0.243,0.678,0.396
				c0.992,0.723,1.84,1.559,1.609,2.925c-0.27,1.604-1.029,2.865-2.695,3.366c-1.027,0.309-2.08,0.289-3.113,0.052
				c-1.383-0.317-2.748-0.708-4.129-1.037c-0.428-0.103-0.555-0.261-0.43-0.702C109.215,82.574,109.465,81.523,109.732,80.48z"/>
			<path fill-rule="evenodd" clip-rule="evenodd" fill="#F69321" d="M112.471,69.82c0.248-0.967,0.496-1.933,0.742-2.899
				c0.068-0.263,0.109-0.522,0.5-0.414c1.59,0.442,3.236,0.703,4.701,1.529c1.828,1.033,2.338,2.443,1.535,4.285
				c-0.723,1.658-2.48,2.453-4.232,1.953c-1.16-0.33-2.332-0.634-3.51-0.896c-0.473-0.104-0.609-0.263-0.471-0.737
				C112.008,71.708,112.229,70.76,112.471,69.82z"/>
		</g>
		<g>
			<path fill-rule="evenodd" clip-rule="evenodd" fill="#F69321" d="M125.234,126.574c-17.01-4.334-27.424-22.036-22.463-39.342
				c4.619-16.108,21.352-26.161,38.214-21.87c17.021,4.333,27.545,22.018,22.508,39.448
				C158.818,120.995,141.962,130.931,125.234,126.574z"/>
			<path fill-rule="evenodd" clip-rule="evenodd" fill="#FEFEFE" d="M161.156,103.197c-3.939,15.364-19.681,24.701-34.941,20.895
				c-15.701-3.918-25.104-19.971-21.084-35.36c4.039-15.469,19.737-24.742,35.286-20.744
				C155.852,71.956,165.128,87.703,161.156,103.197z"/>
			<path fill-rule="evenodd" clip-rule="evenodd" fill="#F69321" d="M155.271,100.878c-2.445,11.316-13.396,19.388-25.55,17.508
				c-12.831-1.986-20.897-13.846-18.972-25.905c2.037-12.763,13.81-20.785,25.821-18.908
				C150.028,75.675,158.092,88.584,155.271,100.878z"/>
			<path fill-rule="evenodd" clip-rule="evenodd" fill="#FEFEFE" d="M142.808,97.027c0.47,0.389,0.91,0.707,1.298,1.08
				c2.012,1.941,2.465,4.453,1.453,7.096c-1.699,4.441-5.08,5.595-9.113,5.004c-0.779-0.114-1.561-0.248-2.317-0.455
				c-0.502-0.137-0.633,0.037-0.739,0.478c-0.356,1.483-0.768,2.954-1.12,4.439c-0.111,0.474-0.289,0.594-0.757,0.448
				c-0.702-0.222-1.418-0.414-2.142-0.549c-0.575-0.106-0.623-0.369-0.482-0.873c0.395-1.42,0.719-2.86,1.122-4.277
				c0.153-0.541,0.014-0.721-0.515-0.853c-1.729-0.433-1.724-0.454-2.16,1.246c-0.296,1.147-0.603,2.292-0.878,3.442
				c-0.096,0.398-0.264,0.508-0.662,0.392c-0.784-0.228-1.574-0.435-2.37-0.608c-0.43-0.094-0.465-0.299-0.363-0.672
				c0.4-1.5,0.76-3.012,1.175-4.508c0.13-0.468,0.03-0.641-0.444-0.755c-1.816-0.438-3.615-0.946-5.438-1.368
				c-0.605-0.141-0.695-0.381-0.508-0.92c0.277-0.793,0.516-1.602,0.734-2.415c0.1-0.362,0.252-0.463,0.615-0.36
				c0.707,0.202,1.43,0.354,2.137,0.56c0.734,0.214,1.234-0.05,1.553-0.702c0.137-0.281,0.244-0.582,0.322-0.885
				c1.263-4.895,2.518-9.788,3.774-14.683c0.326-1.271,0.013-1.8-1.264-2.126c-0.662-0.169-1.324-0.35-1.995-0.476
				c-0.533-0.101-0.705-0.316-0.527-0.86c0.246-0.749,0.461-1.513,0.619-2.284c0.111-0.54,0.356-0.59,0.83-0.462
				c1.881,0.503,3.775,0.959,5.654,1.47c0.498,0.136,0.688,0.034,0.806-0.472c0.335-1.435,0.738-2.854,1.079-4.288
				c0.109-0.462,0.277-0.603,0.753-0.454c0.727,0.228,1.469,0.417,2.215,0.571c0.492,0.102,0.557,0.322,0.434,0.772
				c-0.391,1.421-0.727,2.856-1.117,4.278c-0.121,0.446-0.055,0.644,0.43,0.777c1.813,0.5,1.807,0.52,2.271-1.292
				c0.262-1.02,0.564-2.031,0.773-3.062c0.123-0.604,0.375-0.699,0.92-0.522c0.674,0.221,1.367,0.391,2.064,0.531
				c0.469,0.094,0.59,0.271,0.455,0.75c-0.402,1.445-0.732,2.909-1.141,4.353c-0.145,0.514-0.037,0.702,0.471,0.902
				c1.844,0.727,3.55,1.674,4.941,3.147c2.889,3.061,1.242,7.734-2.096,9.118C143.323,96.798,143.09,96.905,142.808,97.027z"/>
			<path fill-rule="evenodd" clip-rule="evenodd" fill="#F69321" d="M129.732,100.48c0.273-1.07,0.553-2.138,0.82-3.209
				c0.077-0.313,0.171-0.554,0.572-0.439c1.967,0.563,4.015,0.857,5.872,1.777c0.234,0.116,0.469,0.243,0.678,0.396
				c0.992,0.723,1.84,1.559,1.611,2.925c-0.27,1.604-1.031,2.865-2.695,3.366c-1.029,0.309-2.08,0.289-3.113,0.052
				c-1.383-0.317-2.749-0.708-4.129-1.037c-0.428-0.103-0.556-0.261-0.43-0.702C129.215,102.574,129.465,101.523,129.732,100.48z"/>
			<path fill-rule="evenodd" clip-rule="evenodd" fill="#F69321" d="M132.471,89.82c0.248-0.967,0.497-1.933,0.743-2.899
				c0.068-0.263,0.109-0.522,0.5-0.414c1.59,0.442,3.234,0.703,4.699,1.529c1.83,1.033,2.338,2.443,1.535,4.285
				c-0.723,1.658-2.479,2.453-4.232,1.953c-1.16-0.33-2.33-0.634-3.509-0.896c-0.472-0.104-0.608-0.263-0.47-0.737
				C132.009,91.708,132.229,90.76,132.471,89.82z"/>
		</g>
	</g>
	<g>
		<g>
			<path fill-rule="evenodd" clip-rule="evenodd" fill="#F69321" d="M38.094,82.341c-17.01-4.334-27.424-22.036-22.461-39.342
				c4.619-16.108,21.352-26.161,38.212-21.87c17.022,4.333,27.548,22.018,22.511,39.448C71.68,76.762,54.821,86.698,38.094,82.341z"
				/>
			<path fill-rule="evenodd" clip-rule="evenodd" fill="#FEFEFE" d="M74.018,58.964c-3.939,15.364-19.683,24.701-34.943,20.895
				C23.373,75.94,13.973,59.888,17.99,44.498c4.039-15.469,19.738-24.742,35.287-20.744C68.713,27.723,77.99,43.47,74.018,58.964z"
				/>
			<path fill-rule="evenodd" clip-rule="evenodd" fill="#F69321" d="M68.133,56.646c-2.446,11.316-13.396,19.388-25.551,17.508
				C29.75,72.167,21.684,60.308,23.609,48.248C25.646,35.485,37.42,27.463,49.431,29.34C62.889,31.442,70.953,44.352,68.133,56.646z
				"/>
			<path fill-rule="evenodd" clip-rule="evenodd" fill="#FEFEFE" d="M55.668,52.794c0.47,0.389,0.91,0.707,1.298,1.08
				c2.012,1.941,2.465,4.453,1.453,7.096c-1.699,4.441-5.08,5.595-9.113,5.004c-0.778-0.114-1.56-0.248-2.317-0.455
				c-0.502-0.137-0.633,0.037-0.738,0.478c-0.357,1.483-0.768,2.954-1.121,4.439c-0.111,0.474-0.289,0.594-0.756,0.448
				c-0.703-0.222-1.418-0.414-2.143-0.549c-0.574-0.106-0.623-0.369-0.482-0.873c0.395-1.42,0.719-2.86,1.123-4.277
				c0.152-0.541,0.014-0.721-0.516-0.853c-1.729-0.433-1.723-0.454-2.16,1.246c-0.295,1.147-0.602,2.292-0.877,3.442
				c-0.096,0.398-0.264,0.508-0.662,0.392c-0.785-0.228-1.574-0.435-2.371-0.608c-0.43-0.094-0.463-0.299-0.363-0.672
				c0.402-1.5,0.76-3.012,1.176-4.508c0.129-0.468,0.029-0.641-0.445-0.755c-1.816-0.438-3.615-0.946-5.436-1.368
				c-0.605-0.141-0.695-0.381-0.508-0.92c0.275-0.793,0.516-1.602,0.734-2.415c0.098-0.362,0.252-0.463,0.613-0.36
				c0.709,0.202,1.432,0.354,2.139,0.56c0.732,0.214,1.234-0.05,1.553-0.702c0.137-0.281,0.242-0.582,0.322-0.885
				c1.262-4.895,2.516-9.788,3.773-14.683c0.326-1.271,0.012-1.8-1.264-2.126c-0.662-0.169-1.324-0.35-1.996-0.476
				c-0.531-0.101-0.705-0.316-0.527-0.86c0.246-0.749,0.461-1.513,0.619-2.284c0.113-0.54,0.357-0.59,0.83-0.462
				c1.881,0.503,3.775,0.959,5.654,1.47c0.498,0.136,0.688,0.034,0.807-0.472c0.334-1.435,0.738-2.854,1.078-4.288
				c0.109-0.462,0.277-0.603,0.754-0.454c0.727,0.228,1.468,0.417,2.214,0.571c0.492,0.102,0.557,0.322,0.434,0.772
				c-0.39,1.421-0.727,2.856-1.116,4.278c-0.122,0.446-0.056,0.644,0.43,0.777c1.813,0.5,1.807,0.52,2.271-1.292
				c0.262-1.02,0.563-2.031,0.772-3.062c0.123-0.604,0.375-0.699,0.921-0.522c0.674,0.221,1.367,0.391,2.063,0.531
				c0.47,0.094,0.591,0.271,0.456,0.75c-0.402,1.445-0.733,2.909-1.142,4.353c-0.145,0.514-0.037,0.702,0.472,0.902
				c1.844,0.727,3.551,1.674,4.941,3.147c2.889,3.061,1.242,7.734-2.096,9.118C56.183,52.565,55.951,52.672,55.668,52.794z"/>
			<path fill-rule="evenodd" clip-rule="evenodd" fill="#F69321" d="M42.592,56.247c0.273-1.07,0.553-2.138,0.82-3.209
				c0.078-0.313,0.172-0.554,0.572-0.439c1.967,0.563,4.015,0.857,5.873,1.777c0.233,0.116,0.468,0.243,0.678,0.396
				c0.992,0.723,1.84,1.559,1.61,2.925c-0.27,1.604-1.03,2.865-2.695,3.366c-1.028,0.309-2.08,0.289-3.112,0.052
				c-1.383-0.317-2.75-0.708-4.129-1.037c-0.428-0.103-0.557-0.261-0.43-0.702C42.074,58.341,42.324,57.29,42.592,56.247z"/>
			<path fill-rule="evenodd" clip-rule="evenodd" fill="#F69321" d="M45.33,45.587c0.248-0.967,0.498-1.933,0.744-2.899
				c0.068-0.263,0.109-0.522,0.5-0.414c1.589,0.442,3.234,0.703,4.699,1.529c1.829,1.033,2.338,2.443,1.535,4.285
				c-0.723,1.658-2.479,2.453-4.232,1.953c-1.16-0.33-2.33-0.634-3.51-0.896c-0.471-0.104-0.607-0.263-0.469-0.737
				C44.869,47.475,45.09,46.527,45.33,45.587z"/>
		</g>
		<g>
			<path fill-rule="evenodd" clip-rule="evenodd" fill="#F69321" d="M58.094,102.341c-17.01-4.334-27.424-22.036-22.461-39.342
				c4.619-16.108,21.352-26.161,38.213-21.87c17.023,4.333,27.547,22.018,22.51,39.448C91.682,96.762,74.822,106.697,58.094,102.341
				z"/>
			<path fill-rule="evenodd" clip-rule="evenodd" fill="#FEFEFE" d="M94.018,78.964c-3.938,15.364-19.682,24.701-34.943,20.894
				c-15.701-3.918-25.102-19.97-21.084-35.359c4.039-15.469,19.738-24.742,35.287-20.744C88.715,47.723,97.99,63.47,94.018,78.964z"
				/>
			<path fill-rule="evenodd" clip-rule="evenodd" fill="#F69321" d="M88.135,76.646c-2.447,11.316-13.398,19.389-25.553,17.508
				C49.75,92.167,41.684,80.308,43.609,68.248C45.646,55.485,57.42,47.463,69.432,49.34C82.891,51.442,90.955,64.352,88.135,76.646z
				"/>
			<path fill-rule="evenodd" clip-rule="evenodd" fill="#FEFEFE" d="M75.668,72.794c0.471,0.389,0.91,0.707,1.299,1.08
				c2.012,1.941,2.465,4.453,1.453,7.096c-1.699,4.441-5.08,5.595-9.113,5.004c-0.779-0.114-1.561-0.248-2.318-0.455
				c-0.502-0.137-0.633,0.037-0.738,0.478c-0.357,1.483-0.768,2.954-1.121,4.439c-0.111,0.474-0.289,0.594-0.756,0.448
				c-0.703-0.222-1.418-0.414-2.143-0.549c-0.574-0.106-0.623-0.369-0.482-0.873c0.395-1.42,0.719-2.86,1.123-4.277
				c0.152-0.541,0.014-0.721-0.516-0.853c-1.729-0.433-1.723-0.454-2.16,1.246c-0.295,1.147-0.602,2.292-0.877,3.442
				c-0.096,0.398-0.264,0.508-0.662,0.392c-0.785-0.228-1.574-0.435-2.371-0.608c-0.43-0.094-0.463-0.299-0.363-0.672
				c0.402-1.5,0.76-3.012,1.176-4.508c0.129-0.468,0.029-0.641-0.445-0.755c-1.816-0.438-3.615-0.946-5.436-1.368
				c-0.605-0.141-0.695-0.381-0.508-0.92c0.275-0.793,0.516-1.602,0.734-2.415c0.098-0.362,0.252-0.463,0.613-0.36
				c0.709,0.202,1.432,0.354,2.139,0.56c0.732,0.214,1.234-0.05,1.553-0.702c0.137-0.281,0.242-0.582,0.322-0.885
				c1.262-4.895,2.516-9.788,3.773-14.683c0.326-1.271,0.012-1.8-1.264-2.126c-0.662-0.169-1.324-0.35-1.996-0.476
				c-0.531-0.101-0.705-0.316-0.527-0.86c0.246-0.749,0.461-1.513,0.619-2.284c0.113-0.54,0.357-0.59,0.83-0.462
				c1.881,0.503,3.775,0.959,5.654,1.47c0.498,0.136,0.688,0.034,0.807-0.472c0.334-1.435,0.738-2.854,1.078-4.288
				c0.109-0.462,0.277-0.603,0.754-0.454c0.727,0.228,1.469,0.417,2.215,0.571c0.492,0.102,0.557,0.322,0.434,0.772
				c-0.391,1.421-0.727,2.856-1.117,4.278c-0.121,0.446-0.055,0.644,0.43,0.777c1.813,0.5,1.807,0.52,2.271-1.292
				c0.262-1.02,0.564-2.031,0.773-3.062c0.123-0.604,0.375-0.699,0.92-0.522c0.674,0.221,1.367,0.391,2.064,0.531
				c0.469,0.094,0.59,0.271,0.455,0.75c-0.402,1.445-0.732,2.909-1.141,4.353c-0.145,0.514-0.037,0.702,0.471,0.902
				c1.844,0.727,3.552,1.674,4.942,3.147c2.889,3.061,1.242,7.734-2.097,9.118C76.184,72.565,75.951,72.672,75.668,72.794z"/>
			<path fill-rule="evenodd" clip-rule="evenodd" fill="#F69321" d="M62.592,76.247c0.273-1.07,0.553-2.138,0.82-3.209
				c0.078-0.313,0.172-0.554,0.572-0.439c1.967,0.563,4.016,0.857,5.873,1.777c0.234,0.116,0.469,0.243,0.678,0.396
				c0.992,0.723,1.84,1.559,1.611,2.925c-0.27,1.604-1.031,2.865-2.695,3.366c-1.029,0.309-2.08,0.289-3.113,0.052
				c-1.383-0.317-2.75-0.708-4.129-1.037c-0.428-0.103-0.557-0.261-0.43-0.702C62.074,78.341,62.324,77.29,62.592,76.247z"/>
			<path fill-rule="evenodd" clip-rule="evenodd" fill="#F69321" d="M65.33,65.587c0.248-0.967,0.498-1.933,0.744-2.899
				c0.068-0.263,0.109-0.522,0.5-0.414c1.59,0.442,3.234,0.703,4.699,1.529c1.83,1.033,2.338,2.443,1.535,4.285
				c-0.723,1.658-2.479,2.453-4.232,1.953c-1.16-0.33-2.33-0.634-3.51-0.896c-0.471-0.104-0.607-0.263-0.469-0.737
				C64.869,67.475,65.09,66.527,65.33,65.587z"/>
		</g>
		<g>
			<path fill-rule="evenodd" clip-rule="evenodd" fill="#F69321" d="M78.095,122.341c-17.011-4.334-27.425-22.037-22.462-39.342
				c4.619-16.108,21.352-26.161,38.213-21.87c17.021,4.333,27.547,22.018,22.51,39.448
				C111.68,116.761,94.822,126.699,78.095,122.341z"/>
			<path fill-rule="evenodd" clip-rule="evenodd" fill="#FEFEFE" d="M114.018,98.964c-3.939,15.364-19.682,24.702-34.942,20.895
				c-15.702-3.92-25.103-19.971-21.085-35.361c4.039-15.469,19.738-24.742,35.287-20.744
				C108.713,67.723,117.99,83.47,114.018,98.964z"/>
			<path fill-rule="evenodd" clip-rule="evenodd" fill="#F69321" d="M108.133,96.646c-2.445,11.316-13.396,19.387-25.551,17.508
				c-12.832-1.986-20.898-13.846-18.973-25.905C65.646,75.485,77.42,67.463,89.432,69.34
				C102.889,71.442,110.953,84.352,108.133,96.646z"/>
			<path fill-rule="evenodd" clip-rule="evenodd" fill="#FEFEFE" d="M95.668,92.794c0.471,0.389,0.91,0.707,1.299,1.08
				c2.012,1.941,2.465,4.453,1.453,7.096c-1.699,4.441-5.08,5.595-9.113,5.004c-0.779-0.114-1.561-0.248-2.317-0.455
				c-0.502-0.137-0.633,0.037-0.739,0.478c-0.356,1.483-0.768,2.954-1.12,4.439c-0.111,0.474-0.289,0.594-0.757,0.448
				c-0.702-0.222-1.418-0.414-2.142-0.549c-0.575-0.106-0.623-0.369-0.482-0.873c0.395-1.42,0.719-2.86,1.122-4.277
				c0.153-0.541,0.014-0.721-0.515-0.853c-1.729-0.433-1.724-0.454-2.16,1.246c-0.296,1.147-0.603,2.292-0.878,3.442
				c-0.096,0.398-0.264,0.508-0.662,0.392c-0.784-0.228-1.574-0.435-2.371-0.608c-0.43-0.094-0.463-0.299-0.363-0.672
				c0.402-1.5,0.76-3.012,1.176-4.508c0.13-0.468,0.03-0.641-0.445-0.755c-1.816-0.438-3.615-0.946-5.436-1.368
				c-0.605-0.141-0.695-0.381-0.508-0.92c0.275-0.793,0.516-1.602,0.734-2.415c0.098-0.362,0.252-0.463,0.613-0.36
				c0.709,0.202,1.432,0.354,2.139,0.56c0.732,0.214,1.234-0.05,1.553-0.702c0.137-0.281,0.242-0.582,0.322-0.885
				c1.262-4.895,2.517-9.788,3.773-14.683c0.326-1.271,0.013-1.8-1.264-2.126c-0.662-0.169-1.324-0.35-1.996-0.476
				c-0.531-0.101-0.705-0.316-0.527-0.86c0.246-0.749,0.461-1.513,0.619-2.284c0.113-0.54,0.357-0.59,0.831-0.462
				c1.881,0.503,3.775,0.959,5.654,1.47c0.498,0.136,0.688,0.034,0.806-0.472c0.335-1.435,0.738-2.854,1.079-4.288
				c0.109-0.462,0.277-0.603,0.753-0.454c0.727,0.228,1.469,0.417,2.215,0.571c0.492,0.102,0.557,0.322,0.434,0.772
				c-0.391,1.421-0.727,2.856-1.117,4.278c-0.121,0.446-0.055,0.644,0.43,0.777c1.813,0.5,1.807,0.52,2.271-1.292
				c0.262-1.02,0.564-2.031,0.773-3.062c0.123-0.604,0.375-0.699,0.92-0.522c0.674,0.221,1.367,0.391,2.064,0.531
				c0.469,0.094,0.59,0.271,0.455,0.75c-0.402,1.445-0.732,2.909-1.141,4.353c-0.145,0.514-0.037,0.702,0.471,0.902
				c1.844,0.727,3.551,1.674,4.941,3.147c2.889,3.061,1.242,7.734-2.096,9.118C96.184,92.565,95.951,92.672,95.668,92.794z"/>
			<path fill-rule="evenodd" clip-rule="evenodd" fill="#F69321" d="M82.593,96.247c0.273-1.07,0.553-2.138,0.82-3.209
				c0.077-0.313,0.171-0.554,0.572-0.439c1.967,0.563,4.015,0.857,5.872,1.777c0.234,0.116,0.469,0.243,0.678,0.396
				c0.992,0.723,1.84,1.559,1.611,2.925c-0.27,1.604-1.031,2.865-2.695,3.366c-1.029,0.309-2.08,0.289-3.113,0.052
				c-1.383-0.317-2.749-0.708-4.129-1.037c-0.428-0.103-0.556-0.261-0.43-0.702C82.075,98.341,82.325,97.29,82.593,96.247z"/>
			<path fill-rule="evenodd" clip-rule="evenodd" fill="#F69321" d="M85.331,85.587c0.248-0.967,0.497-1.933,0.743-2.899
				c0.068-0.263,0.109-0.522,0.5-0.414c1.59,0.442,3.234,0.703,4.699,1.529c1.83,1.033,2.338,2.443,1.535,4.285
				c-0.723,1.658-2.479,2.453-4.232,1.953c-1.16-0.33-2.33-0.634-3.509-0.896c-0.472-0.104-0.608-0.263-0.47-0.737
				C84.869,87.475,85.09,86.527,85.331,85.587z"/>
		</g>
	</g>
</g>
<g id="Layer_1">
	<path fill="#03589C" stroke="#000000" stroke-miterlimit="10" d="M303,61.443c0,31.48-67.157,57-150,57s-150-25.52-150-57l0,114
		c0,31.48,67.157,57,150,57c82.843,0,150-25.52,150-57V61.443z"/>
	<g>
		<g>
			<defs>
				<rect id="SVGID_1_" x="118.043" y="141.485" width="69.914" height="69.914"/>
			</defs>
			<clipPath id="SVGID_2_">
				<use xlink:href="#SVGID_1_"  overflow="visible"/>
			</clipPath>
			<g clip-path="url(#SVGID_2_)">
				<defs>
					<rect id="SVGID_3_" x="118.043" y="141.485" width="69.914" height="69.914"/>
				</defs>
				<clipPath id="SVGID_4_">
					<use xlink:href="#SVGID_3_"  overflow="visible"/>
				</clipPath>
			</g>
			<polygon clip-path="url(#SVGID_2_)" fill="#40B2E6" points="153,176.444 118.043,141.487 118.043,176.444 153,211.397 
				187.957,176.444 187.957,141.487 			"/>
			<polygon clip-path="url(#SVGID_2_)" fill="#E2F3FC" points="139.644,198.045 153,211.397 166.356,198.045 			"/>
			<polygon clip-path="url(#SVGID_2_)" fill="#E2F3FC" points="118.043,176.444 131.742,172.664 135.522,158.965 118.043,141.487 
							"/>
			<polygon clip-path="url(#SVGID_2_)" fill="#E2F3FC" points="170.479,158.965 184.178,162.745 187.957,176.443 187.957,141.486 
							"/>
			<g clip-path="url(#SVGID_2_)">
				<defs>
					<rect id="SVGID_5_" x="118.043" y="141.485" width="69.914" height="69.914"/>
				</defs>
				<clipPath id="SVGID_6_">
					<use xlink:href="#SVGID_5_"  overflow="visible"/>
				</clipPath>
			</g>
			<g clip-path="url(#SVGID_2_)">
				<defs>
					<rect id="SVGID_7_" x="118.043" y="141.485" width="69.914" height="69.914"/>
				</defs>
				<clipPath id="SVGID_8_">
					<use xlink:href="#SVGID_7_"  overflow="visible"/>
				</clipPath>
			</g>
			<g clip-path="url(#SVGID_2_)">
				<defs>
					<rect id="SVGID_9_" x="118.043" y="141.485" width="69.914" height="69.914"/>
				</defs>
				<clipPath id="SVGID_10_">
					<use xlink:href="#SVGID_9_"  overflow="visible"/>
				</clipPath>
			</g>
		</g>
	</g>
	<line display="none" fill="none" stroke="#000000" stroke-miterlimit="10" x1="153" y1="232.443" x2="153" y2="211.443"/>
	<path fill="none" stroke="#000000" stroke-width="6" stroke-miterlimit="10" d="M303,59.966c0,31.48-67.157,57-150,57
		s-150-25.52-150-57"/>
</g>
<g id="Layer_2">
	<g>
		<g>
			<g>
				<path d="M70.625,139.875v25.41H29.677v-25.41H70.625z M70.625,222.584l9.798,2.699V101.599c0-7.918,5.344-14.378,11.892-14.378
					c6.548,0,11.893,6.46,11.893,14.378c0,3.229,2.191,5.831,4.911,5.831c2.721,0,4.911-2.602,4.911-5.831
					c0.072-14.378-9.678-26.071-21.667-26.071l0,0c-11.987,0-21.737,11.692-21.737,26.071v26.613H29.677v-26.613
					c0-7.918,5.344-14.378,11.892-14.378c6.548,0,11.892,6.46,11.892,14.378c0,3.229,2.191,5.831,4.911,5.831
					s4.911-2.602,4.911-5.831c0-14.378-9.75-26.071-21.738-26.071c-11.989,0-21.738,11.692-21.738,26.071v100.083l9.87,5.798
					v-30.513h40.948"/>
			</g>
		</g>
		<polyline points="104.207,101.599 104.207,115.333 114.029,116.5 114.028,101.599 		"/>
	</g>
</g>
</svg>
